<svg width="310" height="434" viewBox="0 0 310 434" fill="none" xmlns="http://www.w3.org/2000/svg">
<g clip-path="url(#clip0)">
<path d="M128.891 197.14C131.698 192.712 134.555 188.824 139.564 187.57C139.517 187.039 139.496 186.82 139.473 186.594C139.091 182.755 137.161 180.529 133.14 180.208C127.038 179.723 121.819 176.561 116.23 174.491C112.729 173.195 109.056 172.313 105.404 171.511C99.5681 170.236 93.6756 169.215 87.8273 168.029C82.469 166.943 78.6508 163.23 74.6818 159.908C68.5762 154.799 61.9807 150.512 54.5125 147.814C50.8027 146.476 46.7912 145.989 42.9225 145.113C41.5277 144.801 40.1429 144.461 38.746 144.142C38.6626 143.913 38.5852 143.674 38.5017 143.446C39.2008 142.942 39.8244 142.208 40.6009 141.978C42.1378 141.522 43.7705 141.412 45.3378 141.042C50.2462 139.865 55.1953 138.816 60.0202 137.376C63.7086 136.274 67.3261 136.085 71.137 136.425C75.1422 136.784 79.293 137.141 83.2171 136.497C95.6691 134.46 104.855 139.705 112.262 148.954C114.733 152.033 116.477 155.71 118.443 159.175C121.789 165.074 125.968 170.185 131.845 173.741C132.615 174.201 133.452 174.55 134.722 175.186C132.624 171.538 130.648 168.446 129.019 165.188C126.07 159.293 123.224 153.329 120.545 147.305C118.973 143.766 116.787 140.864 113.211 139.441C106.508 136.774 100.687 132.455 93.9492 129.753C90.5793 128.398 87.6962 124.777 85.6192 121.52C82.7505 117.034 80.8558 111.941 78.567 107.093C78.4592 106.87 78.5961 106.526 78.6313 105.949C79.2368 106.166 79.8277 106.19 80.1116 106.497C83.1578 109.776 87.2262 111.273 91.2157 112.834C99.8711 116.214 107.584 120.874 113.506 128.19C113.644 128.362 113.817 128.499 114.347 128.417C113.63 125.576 112.938 122.728 112.167 119.908C112.07 119.554 111.63 119.209 111.265 119.025C103.784 115.219 97.985 109.483 92.8881 102.949C92.1861 102.041 91.4315 101.164 90.6244 100.351C89.4503 99.1746 88.1982 98.4397 86.3865 98.0784C84.5383 97.7091 82.4897 96.3742 81.3472 94.8454C78.6504 91.2458 76.4363 87.2747 74.0202 83.4579C73.5776 82.7601 73.137 82.0704 72.5686 81.1804C71.2323 82.7055 70.0333 84.0582 68.8647 85.4291C67.7364 86.7554 66.3156 86.5797 65.703 84.9689C65.1821 83.5848 64.7804 82.162 64.257 80.5632C63.5208 80.7488 62.4692 81.0139 61.3933 81.2851C61.2035 78.6206 62.7128 76.6558 67.9165 72.5888C67.0066 71.0271 66.1069 69.4715 65.2051 67.9078C65.4536 67.7333 65.7042 67.5668 65.9527 67.3922C67.1779 68.8055 68.4031 70.2187 70.0543 72.1274C69.8837 69.9833 70.1151 68.4095 69.554 67.2077C69.0479 66.1212 67.6705 65.4351 66.6792 64.5743C66.8506 64.2986 67.0301 64.0208 67.2015 63.7452C68.729 64.6172 70.2586 65.4974 71.8368 66.3998C72.6427 65.7059 71.7321 62.8786 74.3535 64.3016C74.5363 63.6958 74.6991 63.1468 74.8778 62.5248C75.2201 62.6883 75.5237 62.7323 75.5888 62.8881C76.0607 64.0091 76.6498 65.1177 76.9033 66.2937C77.3345 68.3118 78.4762 68.5062 80.1138 67.8695C80.3261 67.7902 80.5282 67.6704 80.7344 67.5667C82.0502 66.9165 83.6473 65.2998 84.7757 66.8752C85.5713 67.9835 85.5071 70.1179 85.0954 71.5907C84.6998 72.9906 83.3586 74.1208 82.4487 75.3576C84.2028 77.1284 86.2606 78.9776 88.0557 81.048C90.9625 84.388 92.7594 88.2059 92.4556 92.803C92.4165 93.4328 92.6104 94.2019 92.9777 94.7035C97.9723 101.65 103.68 107.944 110.278 113.402C110.495 113.579 110.77 113.682 111.161 113.902C110.137 104.31 109.319 94.855 102.377 87.4519C101.728 86.7545 100.887 86.1485 100.016 85.7653C94.9732 83.5406 91.556 79.9504 90.6153 74.4098C89.8735 70.0333 88.689 65.9146 85.9254 62.3232C85.3248 61.5447 85.1866 60.3138 85.1135 59.2731C85.03 58.0542 85.3599 57.1445 87.0367 57.7895C87.6361 58.0173 88.6634 57.7239 89.2473 57.3098C90.8434 56.2014 91.9099 56.2683 92.2236 58.1611C92.7606 61.3838 95.2528 62.9427 97.3686 65.4316C96.9491 60.4227 96.5548 55.8208 96.154 51.0224C93.4696 52.319 90.5618 53.207 87.5456 51.6855C86.9724 51.3909 86.1276 50.9408 86.0821 50.4873C86.0345 49.9913 86.6359 49.2369 87.1552 48.908C88.3495 48.1506 89.6594 47.5793 91.2845 46.7564C88.4813 46.4211 85.9494 46.138 84.3815 43.4334C87.3367 41.0611 90.6855 40.1136 94.3417 40.0445C94.9487 40.0292 95.5602 40.2023 96.1693 40.2296C98.5349 40.3307 99.0833 39.4003 98.2207 37.2068C97.6774 35.8025 97.4495 34.2842 97.0781 32.8107C97.4117 32.7008 97.7373 32.5929 98.0709 32.4829C98.6998 34.1585 99.3185 35.8279 99.9473 37.5035C100.188 37.5375 100.427 37.5634 100.668 37.5974C100.784 36.8966 101.09 36.165 100.975 35.5051C100.745 34.1508 100.16 32.8519 99.9911 31.4995C99.8819 30.5885 100.25 29.626 100.41 28.6902C100.625 28.7222 100.829 28.7482 101.044 28.7802C101.588 30.9419 102.133 33.1035 102.807 35.7753C104.637 34.2291 106.105 32.9548 107.614 31.7393C108.115 31.3374 108.742 31.0934 109.305 30.7704C109.616 31.4239 110.178 32.083 110.18 32.7371C110.171 34.1687 109.868 35.5968 109.733 36.6642C112.487 37.6576 115.071 38.7283 117.746 39.4749C118.728 39.7526 119.914 39.2727 121.017 39.1411C121.66 39.0651 122.562 38.7172 122.868 39.0103C123.251 39.3701 123.397 40.358 123.188 40.8929C122.785 41.8899 122.256 43.2374 121.423 43.5851C118.522 44.8072 115.476 45.661 112.35 46.7073C113.107 47.4896 114.275 48.4696 115.143 49.6628C116.105 50.9874 117.114 52.4294 117.536 53.9676C118.107 56.028 117.065 56.8074 115.013 56.2136C114.149 55.958 113.292 55.6659 111.98 55.2389C112.544 56.6898 112.961 57.7643 113.364 58.7821C113.702 58.7916 113.872 58.8521 113.979 58.7992C114.856 58.3542 116.28 57.315 116.485 57.5131C117.68 58.7016 119.5 60.2232 119.438 61.5476C119.136 67.9266 119.193 74.4994 114.277 79.6736C112.149 81.9149 111.73 84.9996 112.174 87.8843C113.333 95.3846 114.814 102.83 116.171 110.297C116.378 110.297 116.578 110.307 116.785 110.306C116.762 107.488 116.918 104.658 116.677 101.86C116.426 98.8843 115.764 95.9513 115.343 92.9835C114.717 88.5865 115.562 84.4643 117.528 80.49C118.92 77.6851 120.077 74.7672 121.37 71.9098C121.596 71.4052 121.955 70.953 122.258 70.4806C122.511 70.4944 122.758 70.5182 123.01 70.532C123.425 74.1558 123.831 77.7818 124.254 81.5069C127.897 78.9612 128.701 72.7312 126.374 68.7543C125.21 66.7658 124.291 64.4833 123.919 62.2262C123.438 59.2909 123.323 56.0735 128.129 56.0246C128.348 56.417 128.749 57.1169 129.317 58.1102C129.844 57.3317 130.271 56.5696 130.83 55.9206C131.143 55.5576 131.703 55.1152 132.081 55.1834C132.413 55.2375 132.821 55.9009 132.899 56.3463C133.118 57.6256 133.188 58.9255 133.316 60.2192C137.129 59.8177 134.617 64.1534 137.138 64.8698C137.098 64.88 137.314 64.8513 137.516 64.7659C138.434 64.3795 139.34 63.979 140.245 63.5785C140.335 64.6496 140.841 65.9426 140.424 66.7452C139.616 68.2835 138.517 69.9297 137.088 70.8151C135.219 71.9665 134.234 73.2479 134.302 75.3922C134.317 75.9308 134.263 76.4695 134.242 77.0001C134.095 80.2058 134.383 83.19 137.822 84.7513C138.201 84.9227 138.706 85.2519 138.791 85.592C139.732 89.5308 140.898 93.4389 141.399 97.4372C141.893 101.377 140.275 104.962 138.085 108.218C137.704 108.787 137.284 109.444 136.716 109.751C132.161 112.225 129.382 116.628 126.276 120.382C122.55 124.886 119.528 130.03 122.058 136.996C125.382 146.12 128.637 155.141 134.542 162.97C134.812 163.323 135.076 163.687 135.742 163.941C135.471 163.071 135.238 162.183 134.921 161.333C133.62 157.777 133.418 154.177 134.114 150.454C134.741 147.068 134.923 143.594 135.705 140.246C136.375 137.373 137.338 134.504 138.633 131.862C144.373 120.16 150.479 108.615 153.975 95.9633C154.652 93.5281 155.134 91.0387 155.736 88.5794C155.782 88.3869 156.01 88.2346 156.426 87.7337C156.879 88.4032 157.517 88.9225 157.569 89.5035C158.347 97.4702 162.2 104.36 164.891 111.69C167.097 117.678 168.167 124.141 169.249 130.482C169.925 134.427 168.643 138.384 166.471 141.678C162.859 147.178 158.78 152.365 155.002 157.752C153.608 159.731 152.559 161.95 151.28 164.011C150.171 165.789 149.194 167.749 147.732 169.185C144.572 172.281 143.1 177.672 144.645 181.923C153.341 170.036 165.086 172.569 176.91 175.039C178.809 167.93 182.219 161.456 186.69 155.542C189.949 151.233 190.76 146.396 190.296 141.175C190.13 139.288 190.199 137.376 190.158 135.475C190.435 135.414 190.712 135.352 190.999 135.297C191.529 136.068 192.097 136.82 192.589 137.609C194.154 140.133 195.461 142.861 197.279 145.192C201.737 150.897 204.921 157.215 207.154 164.057C207.486 165.067 207.721 166.17 207.684 167.221C207.386 176.208 207.237 185.244 202.449 193.313C201.768 194.467 202.024 195.211 202.619 196.379C205.474 201.971 208.263 207.605 210.756 213.366C212.285 216.907 213.238 220.687 214.656 224.98C219.639 223.724 225.257 222.359 230.834 220.867C232.149 220.519 233.469 219.919 234.57 219.133C239.087 215.928 244.273 215.474 249.522 215.545C250.972 215.567 252.399 216.551 254.244 217.248C253.501 218.227 253.108 218.921 252.557 219.464C244.426 227.481 239.426 236.827 239.275 248.584C239.194 254.407 237.956 260.144 235.365 265.154C241.213 266.238 247.143 266.964 252.852 268.487C259.337 270.219 264.7 274.189 269.356 278.973C272.235 281.933 274.663 285.351 277.655 288.178C280.062 290.456 283.014 292.166 285.726 294.117C286.609 294.756 287.521 295.37 289.002 296.4C287.462 296.909 286.657 297.198 285.834 297.448C282.028 298.597 278.241 299.819 274.401 300.864C272.202 301.461 269.933 302.085 267.677 302.146C263.313 302.273 259.353 303.047 255.451 305.383C252.094 307.391 248.02 308.16 244.316 309.61C240.283 311.186 236.313 312.91 232.278 314.582C233.254 315.894 234.293 317.596 235.62 319.035C240.142 323.939 241.762 329.989 243.091 336.319C244.43 342.689 246.277 348.957 248.095 355.215C248.478 356.53 249.587 357.688 250.527 358.786C253.113 361.811 255.018 365.137 255.977 369.045C256.392 370.723 257.326 372.279 258.015 373.887C258.314 374.595 258.597 375.308 259.118 376.589C257.571 376.221 256.642 376.016 255.721 375.774C250.777 374.455 245.835 373.143 240.907 371.785C239.888 371.499 238.904 371.041 237.932 370.598C236.822 370.085 235.8 369.241 234.638 369C227.383 367.522 220.146 365.911 212.657 366.068C211.073 366.097 209.46 365.806 207.895 365.503C203.486 364.634 199.087 363.668 194.028 362.609C197.261 377.483 200.351 391.721 203.451 405.964C203.136 406.044 202.82 406.124 202.503 406.195C198.704 399.42 198.046 391.69 196.403 384.251C196.183 384.298 195.952 384.339 195.732 384.386C197.17 390.602 198.618 396.824 200.056 403.04C199.803 403.096 199.55 403.151 199.297 403.206C198.187 399.723 196.931 396.277 196.015 392.745C194.854 388.241 193.877 383.683 193.027 379.118C192.823 378.033 193.415 376.799 193.637 375.632C193.703 375.28 193.862 374.887 193.789 374.561C192.825 370.636 191.831 366.728 190.595 362.846C191.538 366.587 192.478 370.319 193.421 374.059C193.166 374.141 192.912 374.222 192.657 374.304C190.213 370.58 187.769 366.856 187.443 362.082C187.206 362.168 186.978 362.251 186.741 362.337C189.767 376.901 192.793 391.465 195.811 406.031C195.465 406.126 195.125 406.212 194.779 406.308C194.219 404.357 193.551 402.424 193.12 400.44C190.518 388.447 187.931 376.442 185.453 364.426C184.984 362.159 184.068 360.642 181.937 359.526C176.656 356.767 174.258 351.586 171.716 346.587C171.285 345.731 170.975 344.81 170.448 343.505C167.894 347.843 166.831 352.227 166.104 356.646C165.638 359.441 164.891 361.972 163.267 364.301C162.452 365.471 161.781 366.837 161.406 368.215C159.83 374.011 156.571 378.388 151.183 381.142C150.093 381.7 149 382.312 148.059 383.083C140.076 389.641 131.221 389.29 122.482 385.544C112.458 381.242 102.949 376.01 95.7028 367.332C93.2603 364.4 89.6221 362.493 86.6685 359.957C84.5156 358.106 82.4676 356.09 80.6095 353.941C79.506 352.669 80.3765 351.925 81.8694 351.738C89.5261 350.781 97.2094 349.929 104.841 348.772C109.043 348.134 113.172 346.973 117.322 346.03C118.722 345.712 120.115 345.335 121.773 344.917C121.38 344.379 121.134 343.812 120.712 343.505C117.02 340.802 114.275 337.421 112.926 332.991C112.318 330.992 111.087 330.51 108.907 330.293C101.484 329.547 93.9389 331.733 86.5884 329.229C84.5088 328.522 82.2142 328.497 80.0582 327.999C78.9528 327.744 77.9236 327.142 76.8563 326.696C76.8435 326.407 76.8308 326.117 76.8079 325.822C78.5019 325.067 80.1286 324.046 81.9043 323.616C86.2565 322.553 89.6817 320.476 92.3547 316.711C93.7911 314.695 96.269 313.365 98.4007 311.923C99.4513 311.211 100.049 310.75 99.8559 309.266C99.572 307.082 99.7695 304.828 99.7769 302.604C99.779 300.77 100.746 300.474 102.178 301.207C103.877 302.079 105.528 303.066 107.522 304.182C109.04 302.319 110.875 300.625 112.03 298.551C116.068 291.256 120.738 284.629 128.416 280.687C128.804 280.486 129.145 279.685 129.087 279.218C128.61 275.584 128.031 271.958 127.444 268.059C121.252 270.868 115.342 273.702 109.295 276.233C105.001 278.039 100.604 279.638 96.1368 280.962C90.7882 282.543 85.3706 284.055 79.8769 284.957C76.6304 285.492 73.165 284.919 69.8257 284.607C68.9352 284.521 68.1218 283.581 67.2768 283.028C67.9715 282.405 68.5584 281.49 69.3732 281.208C74.3654 279.476 77.3668 275.989 78.8333 271.022C79.2471 269.626 79.7804 268.26 80.1943 266.864C82.8256 257.849 88.386 251.203 96.4963 246.619C101.753 243.649 106.776 240.093 112.325 237.841C121.506 234.124 131.238 233.108 140.956 235.584C145.525 236.748 149.83 238.91 154.263 240.625C154.607 240.762 154.941 240.928 155.545 241.206C154.864 238.949 154.699 236.623 153.519 235.078C152.545 233.808 150.429 233.093 148.7 232.788C143.536 231.894 139.122 229.571 135.278 226.166C133.892 224.931 132.615 223.35 131.865 221.671C130.91 219.518 129.417 218.921 127.355 219.002C120.622 219.252 114.542 221.207 109.562 225.958C107.288 228.133 105.081 230.368 102.759 232.486C96.5691 238.136 89.0626 240.235 80.8772 240.904C75.7183 241.326 70.5604 242.23 65.5003 243.385C58.8929 244.887 56.3464 250.075 55.2343 256.142C54.8783 258.074 54.3492 259.49 51.8342 259.582C53.1718 254.922 51.1418 250.896 49.8865 246.77C48.7514 243.017 49.0335 239.631 51.1974 236.236C53.2504 233.014 54.9426 229.557 56.641 226.124C58.4241 222.514 60.5599 219.246 63.3844 216.321C64.5372 215.127 65.1399 213.08 65.3385 211.343C65.9069 206.533 67.8045 202.558 71.5027 199.413C76.1885 195.442 80.8197 191.425 86.6707 189.175C92.8654 186.787 99.2147 185.694 105.836 186.772C108.635 187.229 111.457 187.603 114.21 188.252C119.915 189.621 125.074 191.997 128.891 197.14ZM92.6889 64.7514C90.4634 73.3632 93.3017 81.6199 101.23 83.7544C99.7904 81.3878 98.5985 79.4237 97.4044 77.4515C97.4994 77.3845 97.6025 77.3155 97.6974 77.2485C98.2001 77.6728 98.7029 78.0972 99.2056 78.5215C99.343 78.418 99.4702 78.3085 99.6076 78.205C98.0885 75.6258 96.5694 73.0467 95.0504 70.4676C95.1898 70.3722 95.3292 70.2768 95.4707 70.1895C97.1756 72.6184 98.8865 75.0372 100.591 77.4662C100.524 76.3465 100.162 75.4217 99.608 74.6229C97.3083 71.302 94.9581 68.0197 92.62 64.7171C93.8871 65.8529 95.2592 66.8933 96.3768 68.1528C97.6608 69.5944 98.7125 71.2408 99.861 72.7939C100.069 72.6295 100.277 72.4652 100.485 72.3008C98.0465 69.2474 95.6078 66.1941 93.167 63.1326C92.9589 63.2626 92.7588 63.3905 92.5507 63.5205C92.6103 63.9274 92.6455 64.3404 92.6889 64.7514ZM131.277 97.5258C131.862 96.2937 132.668 95.1259 133.004 93.8273C134.071 89.7007 135.042 85.5297 132.351 81.1019C131.842 82.2205 131.429 83.1081 130.831 84.4213C128.154 81.6863 130.236 78.7506 130.619 75.4594C129.779 76.4288 129.321 76.8285 129.033 77.3231C127.7 79.6136 126.55 82.0131 125.083 84.2168C123.06 87.2496 121.744 90.5262 122.171 94.1298C122.383 95.962 123.296 97.9448 124.483 99.3764C126.375 101.663 129.539 100.969 131.016 98.2634C131.1 98.0182 131.193 97.771 131.277 97.5258ZM113.221 50.8791L113.305 50.9356C111.628 48.6545 109.95 46.3652 108.065 43.8009C110.956 43.9072 113.298 44.2554 115.564 43.9943C117.737 43.7394 120.396 43.9129 121.271 41.686C118.754 40.8825 116.337 40.2347 114.014 39.3478C111.072 38.221 107.78 39.1542 107.674 41.7038C107.58 44.0954 106.144 43.6909 104.973 43.6848C103.759 43.6809 102.014 44.5769 101.627 42.1518C101.469 41.1497 100.576 40.2036 99.0221 41.0345C98.0297 41.5688 96.7269 41.725 95.5634 41.7169C92.3987 41.6881 89.4641 42.3331 86.5052 43.94C89.344 46.7375 93.1783 43.8594 96.3644 46.2939C93.421 47.5869 90.9669 48.6705 88.5127 49.7541C88.5172 49.9424 88.5237 50.1388 88.5362 50.325C89.4472 50.5259 90.3544 50.8483 91.2732 50.9095C94.2218 51.1048 96.2901 49.3779 98.2954 47.5378C98.7296 47.1442 99.3856 46.402 99.655 46.5149C101.518 47.2851 103.85 47.7994 105.019 49.227C107.794 52.626 111.535 53.4051 116.103 54.527C114.865 52.9619 114.043 51.9205 113.221 50.8791ZM191.537 175.76C191.557 175.531 191.569 175.305 191.591 175.084C191.751 173.261 191.909 171.43 192.069 169.608C192.214 169.605 192.352 169.605 192.5 169.611C192.578 170.228 192.664 170.844 192.74 171.419C194.789 168.044 193.171 164.628 192.915 161.223C192.888 160.911 192.357 160.649 192.328 160.329C192.107 158.189 190.443 156.128 191.991 153.327C192.941 155.421 193.679 157.052 194.528 158.922C195.807 155.258 192.79 152.403 194.266 148.974C194.776 147.786 193.432 145.8 192.77 143.651C190.589 155.446 189.659 154.793 186.816 158.395C182.754 163.543 180.419 169.264 180.567 175.891C180.567 175.994 180.713 176.095 180.804 176.218C181.091 175.922 181.363 175.638 181.67 175.32C181.981 176.077 182.244 176.708 182.506 177.339C182.642 177.297 182.769 177.256 182.907 177.221C182.899 176.612 182.9 176 182.892 175.391C183.024 175.366 183.147 175.344 183.277 175.311C183.611 176.26 183.945 177.209 184.278 178.158C184.371 178.118 184.472 178.075 184.565 178.034C184.503 177.447 184.444 176.868 184.39 176.279C184.572 176.181 184.76 176.074 184.941 175.976C186.052 177.548 187.154 179.121 188.252 180.678C188.194 180.176 188.136 179.605 188.023 178.575C189.094 179.106 189.811 179.459 191.01 180.052C191.161 178.74 191.352 177.245 191.537 175.76ZM91.0556 141.995L91.1326 142.027C87.1257 140.876 83.5283 138.175 78.661 138.696C82.6276 139.926 85.701 141.743 87.6104 145.154C86.6936 145.101 85.9241 144.812 85.2332 144.392C82.3906 142.672 79.6146 140.84 76.7055 139.232C75.9762 138.83 74.8579 139.138 73.7145 139.107C74.1376 140.137 74.3431 140.645 74.5485 141.153C73.8873 141.363 73.1842 141.85 72.581 141.744C70.8321 141.427 69.1344 140.494 67.4125 140.489C64.1648 140.473 60.9545 139.035 57.621 140.486C55.8602 141.249 53.7761 141.275 51.8344 141.626C52.3471 141.988 52.8531 142.084 53.3712 142.126C61.7297 142.895 70.13 143.352 78.4327 144.514C86.7455 145.682 94.5964 148.499 101.701 153.166C104.195 154.802 106.891 156.145 109.349 157.842C111.716 159.484 114.025 161.27 116.115 163.249C118.331 165.351 120.192 167.818 122.341 169.997C123.163 170.832 124.349 171.308 125.373 171.954C122.748 168.198 119.894 164.828 117.07 161.441C114.528 158.388 112.017 155.318 109.497 152.251C109.614 152.135 109.729 152.012 109.854 151.894C111.068 152.75 112.29 153.605 113.502 154.453C113.569 154.376 113.635 154.299 113.702 154.222C110.646 151.143 107.58 148.059 104.492 144.954C103.269 145.873 103.117 146.635 104.578 147.55C105.141 147.907 105.467 148.721 105.788 149.38C106.156 150.123 106.392 150.924 106.791 151.96C106.106 151.668 105.398 151.554 104.995 151.147C103.48 149.643 102.114 147.981 100.594 146.488C99.4601 145.37 98.2054 144.351 96.9367 143.38C95.1876 142.038 93.2217 141.543 91.0556 141.995ZM109.428 264.713C107.938 265.933 106.453 267.142 104.962 268.362C104.853 268.234 104.733 268.101 104.624 267.974C105.575 267.036 106.526 266.099 107.477 265.162C105.829 263.778 105.077 265.061 104.213 266.002C103.282 267.02 102.319 268.012 101.411 269.05C98.2659 272.65 95.1413 276.262 91.6736 280.253C92.5941 280.185 92.9746 280.227 93.3002 280.119C98.636 278.248 104.035 276.526 109.259 274.382C111.123 273.62 112.815 272.039 114.119 270.454C115.534 268.728 117.56 267.416 120.254 267.762C118.962 268.811 117.877 269.696 116.794 270.589C116.855 270.694 116.926 270.805 116.987 270.91C119.714 269.474 122.446 268.027 125.173 266.591C125.12 266.484 125.059 266.379 125.006 266.271C123.729 266.869 122.443 267.468 121.166 268.066C123.352 265.75 126.604 264.93 128.101 261.892C126.842 262.803 125.59 263.705 124.331 264.616C124.246 264.517 124.161 264.418 124.075 264.319C124.879 263.41 125.68 262.494 126.483 261.585C126.35 261.464 126.216 261.343 126.088 261.211C125.651 261.321 125.214 261.431 124.252 261.674C125.788 260.228 126.927 259.148 128.066 258.069C128.024 258.002 127.983 257.944 127.94 257.877C127.14 258.354 126.34 258.831 125.329 259.431C127.189 254.484 131.094 251.787 134.562 248.648C133.263 248.889 132.123 249.314 131.045 249.853C125.145 252.761 119.227 255.63 113.398 258.684C112.318 259.249 111.504 260.488 110.804 261.568C110.164 262.547 109.835 263.732 109.372 264.831L109.428 264.713ZM121.826 123.923C120.958 124.951 120.09 125.979 119.222 127.008C118.923 126.945 118.631 126.881 118.329 126.811C117.974 124.446 117.609 122.076 117.254 119.711C117.176 119.197 117.28 118.62 117.079 118.162C116.383 116.564 115.172 115.07 114.911 113.422C112.899 100.729 109.226 88.2742 109.483 75.13C108.581 75.2025 107.772 75.2687 106.944 75.3309C109.109 89.139 111.245 102.799 113.39 116.466C113.142 116.606 112.895 116.754 112.647 116.894C107.751 114.469 104.183 110.383 100.571 106.429C96.9461 102.46 93.6287 98.2075 90.2408 94.1534C89.5209 94.3349 88.356 94.6286 87.0131 94.967C87.4313 95.5677 87.663 96.0432 88.0259 96.3908C90.4996 98.7637 93.1833 100.946 95.4449 103.501C99.9438 108.584 104.634 113.438 110.647 116.71C112.61 117.773 113.53 119.272 114.167 121.221C115.795 126.175 117.477 131.107 119.096 136.063C119.393 136.97 119.47 137.958 119.72 139.29C113.816 133.855 108.374 128.855 102.941 123.853C103.08 123.654 103.211 123.458 103.35 123.259C105.713 124.644 108.077 126.037 110.47 127.44C108.315 124.694 107.827 124.361 104.333 122.787C103.721 122.511 103.19 122.008 102.701 121.537C101.369 120.245 100.079 118.917 98.7673 117.603C98.5511 117.77 98.335 117.936 98.1269 118.1C98.3789 119.544 98.6228 120.989 98.8748 122.432C98.6888 122.514 98.5109 122.593 98.3249 122.674C95.2449 119.671 92.1648 116.667 89.1071 113.684C88.671 117.927 90.89 120.45 94.1923 122.321C98.2583 124.629 102.467 126.719 106.322 129.347C109.521 131.528 112.421 134.224 115.213 136.939C117.845 139.496 121.542 141.397 121.636 145.833C126.845 155.645 132.054 165.456 137.263 175.268C137.607 175.914 137.928 176.573 138.436 177.564C136.866 177.891 135.639 178.14 134.425 178.377C132.103 175.648 129.041 175.653 125.811 176.252C128.694 176.938 131.577 177.623 134.459 178.308C138.932 178.645 140.734 181.799 142.033 185.759C142.592 184.869 142.774 184.16 142.742 183.453C142.645 181.257 142.395 179.072 142.358 176.877C142.331 175.747 142.622 174.615 142.821 173.049C141.81 174.432 141.118 175.373 140.158 176.683C139.234 175.34 138.464 174.432 137.911 173.4C136.32 170.434 135.15 167.19 133.212 164.484C127.164 156.021 123.238 146.66 120.332 136.733C119.143 132.667 118.83 128.966 121.331 125.339C121.61 124.942 121.629 124.369 121.769 123.868C122.906 121.653 124.168 119.492 125.142 117.215C126.775 113.385 127.228 109.344 127.051 106.117C125.957 110.173 124.67 115.035 123.31 119.881C122.921 121.271 122.323 122.584 121.826 123.923ZM117.035 360.387L116.944 360.333C122.771 362.153 128.21 361.747 132.462 357.558C131.591 357.243 130.303 356.776 128.459 356.113C129.421 355.87 129.773 355.696 130.113 355.713C132.155 355.827 134.228 356.303 136.222 356.059C138.508 355.775 140.716 354.874 142.959 354.249C142.912 354.028 142.875 353.814 142.828 353.593C141.393 353.567 139.968 353.547 138.232 353.52C138.775 352.944 139.008 352.705 139.197 352.502C135.215 352.197 131.232 351.892 127.16 351.575C127.432 351.223 127.654 350.943 128.371 350.03C126.501 349.985 124.735 349.397 123.822 350.04C121.628 351.575 119.336 350.095 117.178 350.682C119.678 350.052 122.169 349.424 124.669 348.793C124.649 348.712 124.626 348.623 124.606 348.542C122.919 348.882 121.232 349.221 119.547 349.568C119.529 349.426 119.508 349.276 119.49 349.135C120.496 348.313 121.5 347.483 122.72 346.486C121.828 346.599 121.123 346.57 120.497 346.78C117.611 347.757 114.814 349.116 111.855 349.733C106.624 350.828 101.304 351.532 96.0165 352.296C92.5292 352.796 89.0131 353.114 85.216 353.546C88.1606 355.637 90.8656 357.357 93.3446 359.376C95.5216 361.152 97.7431 362.013 100.896 361.037C98.552 358.942 96.3827 356.991 94.2155 355.049C94.3204 354.885 94.4313 354.711 94.5362 354.546C96.2514 355.173 97.9747 355.798 99.8701 356.491C99.2702 357.013 98.9249 357.315 98.4159 357.753C100.129 358.234 102.452 358.234 102.866 359.128C103.824 361.186 105.796 360.784 107.135 361.488C108.731 362.326 110.952 362.024 112.903 362.083C113.684 362.11 115.179 361.725 115.168 361.65C114.964 359.919 116.407 360.761 117.035 360.387ZM157.62 343.708C156.781 343.859 155.951 344.016 155.112 344.168C155.09 344.044 155.059 343.923 155.036 343.799C157.011 342.897 158.986 341.994 160.961 341.092C160.9 340.952 160.839 340.813 160.786 340.671C159.583 341.052 158.372 341.434 157.044 341.864C158.453 339.778 159.68 337.953 160.967 336.062C159.709 336.672 158.521 337.247 157.34 337.82C157.265 337.692 157.198 337.563 157.125 337.444C158.335 336.579 159.554 335.712 160.764 334.847C160.652 334.677 160.543 334.516 160.431 334.346C159.907 334.624 159.396 334.916 158.867 335.171C157.48 335.813 156.116 336.544 154.666 337.004C154.061 337.2 152.793 336.469 152.63 336.708C150.846 339.328 147.887 338.748 145.438 339.442C144.281 339.768 142.951 339.475 141.693 339.465C141.68 339.279 141.668 339.093 141.655 338.906C145.072 338.536 148.131 337.498 150.31 334.641C148.223 334.857 146.274 335.116 144.32 335.247C143.22 335.317 142.09 335.034 141.006 335.169C139.529 335.352 138.07 336.116 136.633 336.048C132.509 335.865 128.444 336.02 124.349 334.279C121.505 333.067 118.775 332.033 116.517 329.899C116.154 329.551 115.587 329.419 115.036 329.144C114.811 330.028 114.198 331.043 114.485 331.531C116.097 334.276 117.694 337.094 119.73 339.508C121.937 342.12 124.69 344.268 127.099 346.726C128.802 348.466 130.786 349.645 133.171 349.586C138.288 349.476 143.442 349.408 148.509 348.794C156.573 347.812 164.131 345.442 169.621 338.857C170.037 338.356 170.375 337.789 170.757 337.254C170.623 337.132 170.489 337.011 170.357 336.898C168.875 338.115 167.386 339.343 165.903 340.561C165.798 340.415 165.686 340.28 165.581 340.134C167.338 338.434 169.094 336.734 170.849 335.026C170.707 334.872 170.563 334.711 170.421 334.557C166.292 337.836 162.628 341.8 157.568 343.738L157.62 343.708ZM121.263 197.186C119.883 196.595 118.504 196.004 117.119 195.423C116.213 195.04 115.32 194.602 114.391 194.294C112.451 193.664 110.255 193.451 109.394 190.956C110.963 191.344 112.467 191.714 113.961 192.077C113.999 191.887 114.047 191.703 114.085 191.512C109.745 190.437 105.394 189.355 101.732 188.444C99.9708 189.172 98.7073 189.688 97.7551 190.075C98.3723 190.1 99.3092 190.131 100.246 190.162C100.257 190.305 100.265 190.441 100.275 190.585C99.4201 190.878 98.5668 191.179 97.7034 191.474C100.735 189.918 102.591 192.093 104.912 193.756C104.232 193.858 103.727 194.106 103.38 193.961C99.2228 192.279 95.1401 192.568 90.983 194.029C89.5535 194.536 87.9631 194.575 86.4522 194.827C86.395 194.6 86.3399 194.382 86.2909 194.153C87.9302 193.352 89.5674 192.543 91.2148 191.741C90.2217 191.931 89.2837 192.339 88.3148 192.489C86.6662 192.741 85.0775 194.493 83.2751 192.804C83.2528 192.783 82.3703 193.617 81.9606 194.108C81.6094 194.524 81.1055 195.426 81.0954 195.42C78.7188 193.978 78.6784 195.9 78.3271 197.202C79.0968 198.515 81.9108 196.368 81.5592 199.41C82.2244 199.182 82.8249 198.97 83.4254 198.759C83.4539 198.837 83.4804 198.908 83.5089 198.987C78.9231 201.512 74.3373 204.037 69.6747 206.599C69.6718 206.178 69.6691 205.86 69.6574 205.131C66.6477 207.56 67.1157 210.68 66.8085 213.693C67.7512 213.576 68.4876 213.494 69.6305 213.352C67.8222 215.564 66.5096 217.729 64.6838 219.292C61.7592 221.785 59.4221 224.631 57.7277 228.046C57.635 228.224 57.6618 228.467 57.632 228.724C58.0284 228.624 58.352 228.543 58.7726 228.437C58.7248 228.759 58.7658 229.024 58.6548 229.164C56.8264 231.398 56.0717 234.275 53.5141 236.177C50.4515 238.464 50.2918 243.292 52.5351 247.686C52.7638 246.75 52.9525 246.031 53.1088 245.32C55.113 236.342 58.5091 228.21 66.4738 222.741C67.9104 221.75 69.2209 220.499 70.3674 219.176C71.7621 217.576 72.9157 215.77 74.1706 214.059C74.0307 213.948 73.8909 213.837 73.7591 213.723C71.6955 214.821 69.64 215.916 67.4714 217.074C68.9811 215.315 69.7488 212.831 72.4555 212.545C74.4259 212.341 75.6783 211.337 76.804 209.761C77.8066 208.346 78.9994 206.9 80.4239 205.964C90.4764 199.358 101.28 196.006 113.327 199.255C117.388 200.349 121.339 201.859 125.353 203.172C125.802 203.317 126.282 203.377 127.262 203.578C126.051 202.497 125.273 201.797 124.486 201.1C124.67 200.839 124.861 200.575 125.045 200.314C125.633 200.975 126.232 201.642 126.82 202.303C126.971 202.084 127.124 201.873 127.276 201.654C126.003 200.632 124.722 199.611 123.449 198.589C123.554 198.459 123.667 198.328 123.772 198.198C124.465 198.557 125.151 198.926 125.844 199.286C125.911 199.208 125.969 199.133 126.036 199.056C124.743 198.022 123.458 196.985 122.164 195.951C122.275 195.811 122.376 195.665 122.487 195.525C123.78 196.353 125.071 197.173 126.363 198.001C126.476 197.835 126.589 197.668 126.702 197.502C124.122 195.63 121.551 193.755 118.971 191.882C119.654 193.673 120.671 195.01 121.631 196.395C121.714 196.521 121.393 196.92 121.263 197.186ZM270.852 285.864C271.295 285.984 271.74 286.113 272.184 286.234C268.141 283.198 265.633 278.061 259.775 278.203C256.985 277.339 254.203 276.473 251.413 275.609C251.427 275.494 251.434 275.388 251.448 275.273C252.304 275.255 253.152 275.24 254.008 275.222C254.002 275.094 253.985 274.961 253.979 274.833C251.901 273.928 249.823 273.022 247.745 272.117C247.67 272.299 247.602 272.471 247.527 272.654C247.998 273.086 248.458 273.513 249.443 274.418C247.712 273.899 246.033 273.004 245.686 273.368C243.972 275.169 241.692 273.53 239.649 274.846C237.909 275.965 234.859 274.788 232.606 276.397C231.55 277.155 230.124 277.437 228.824 277.807C228.415 277.928 227.717 277.819 227.447 277.534C225.762 275.764 224.306 277.19 222.958 277.917C221.359 278.776 219.953 279.992 218.466 281.055C218.38 281.12 218.309 281.216 218.2 281.329C218.825 281.283 219.408 281.24 220.419 281.157C219.498 281.837 218.963 282.239 218.431 282.623C218.721 282.679 219.031 282.747 219.338 282.807C219.353 283.036 219.366 283.257 219.38 283.486C217.736 283.788 216.093 284.099 214.449 284.401C214.418 283.901 214.378 283.403 214.345 282.895C211.485 282.712 208.437 284.272 206.541 286.102C205.045 287.538 202.775 289.557 201.26 289.25C199.35 288.871 198.124 290.187 196.335 289.915C194.562 289.638 192.98 293.567 193.15 297.313C195.919 293.076 199.769 290.875 204.12 289.399C205.792 288.831 207.464 288.263 209.1 287.618C224.473 281.573 239.906 281.704 255.431 287.047C262.44 289.457 269.49 291.761 276.553 294.01C277.899 294.437 279.403 294.394 280.832 294.568C280.894 294.268 280.956 293.968 281.018 293.668C277.884 292.702 274.749 291.735 271.623 290.767C271.697 290.55 271.762 290.327 271.836 290.11C272.174 290.051 272.514 290 272.851 289.94C272.685 289.552 272.516 289.19 272.209 288.484C273.357 288.978 274.113 289.312 275.358 289.851C273.58 288.224 272.24 287.003 270.908 285.781L270.852 285.864ZM219.325 312.276C218.281 311.514 217.227 310.747 216.035 309.876C216.535 309.604 216.921 309.395 217.935 308.846C216.122 307.934 214.783 307.195 213.398 306.58C211.897 305.917 210.577 304.502 208.614 305.625C207.719 306.135 206.584 306.274 205.536 306.452C202.921 306.896 200.287 307.267 197.67 307.669C197.699 307.851 197.721 308.043 197.75 308.226C198.304 308.138 198.854 308.033 199.415 307.97C199.914 307.904 200.424 307.879 201.535 307.78C196.536 310.374 196.536 310.374 194.916 309.474C195.283 309.192 195.645 308.92 196.217 308.492C193.315 308.517 193.315 308.517 191.645 313.94C196.928 314.796 201.028 317.852 205.048 321.101C211.836 326.597 218.772 331.927 225.453 337.544C229.361 340.83 233.276 344.243 236.5 348.158C241.062 353.698 244.954 359.786 249.214 365.592C250.772 367.714 252.541 369.679 254.217 371.719C254.477 371.559 254.746 371.396 255.007 371.236C253.466 367.922 251.919 364.618 250.287 361.111C249.693 361.795 249.304 362.263 249.294 362.257C247.909 361.134 246.315 360.167 245.276 358.775C244.279 357.451 243.578 355.966 242.481 354.615C240.758 352.492 239.918 349.638 238.664 347.018C240.067 347.052 240.845 346.761 240.178 345.345C239.646 344.222 239.979 342.812 238.259 342.1C236.945 341.562 236.079 339.972 234.966 338.901C234.011 337.979 232.973 337.138 231.982 336.243C230.498 334.895 229.02 333.537 227.544 332.187C230.208 333.47 234.054 332.38 235.434 336.045C235.212 335.403 234.99 334.762 234.778 334.126C234.891 334.063 235.006 334.008 235.111 333.947C235.669 334.659 236.219 335.373 236.777 336.085C236.838 336.052 236.896 336.012 236.949 335.981C236.552 335.056 236.162 334.122 235.765 333.197C235.854 333.14 235.945 333.091 236.034 333.035C236.419 333.437 236.813 333.837 237.196 334.231C235.82 332.253 235.837 329.623 233.15 328.182C230.645 326.842 228.917 324.048 226.802 321.938C226.112 321.251 225.271 320.714 224.501 320.116C224.604 319.978 224.715 319.838 224.818 319.7C225.551 320.014 226.284 320.329 227.076 320.672C226.968 320.243 226.868 319.846 226.85 319.773C227.63 319.387 228.265 319.072 228.899 318.757C227.261 315.295 223.77 315.03 221.086 313.563C220.494 313.126 219.914 312.704 219.325 312.276ZM147.808 147.166C148.174 144.353 148.535 141.55 148.901 138.736C149.2 138.42 149.499 138.104 149.763 137.822C150.297 138.712 150.845 139.624 151.394 140.536C151.626 140.435 151.861 140.341 152.093 140.239C151.923 135.297 151.742 130.348 151.561 125.193C152.512 126.271 153.271 127.13 154.23 128.206C154.362 126.338 154.65 124.613 154.571 122.902C154.313 117.611 153.81 112.339 153.629 107.046C153.588 105.929 154.476 104.775 154.937 103.634C155.167 103.662 155.408 103.696 155.639 103.724C155.846 104.886 156.216 106.05 156.227 107.218C156.294 114.649 156.449 122.093 156.257 129.52C156.062 137.112 153.992 144.256 149.541 150.492C145.153 156.635 145.185 163.998 143.201 170.801C143.428 170.882 143.644 170.956 143.871 171.037C144.614 169.067 145.348 167.1 146.09 165.13C146.25 165.185 146.402 165.241 146.56 165.287C146.317 166.235 146.081 167.173 145.838 168.121C146.733 167.715 147.856 166.777 147.741 166.591C146.652 164.765 148.529 164.498 149.051 163.497C150.25 161.188 152.785 159.198 151.593 155.968C151.047 156.329 150.643 156.603 150.229 156.871C150.064 156.663 149.9 156.455 149.736 156.246C150.915 155.123 152.106 154.013 153.265 152.877C155.503 150.694 157.718 148.491 160.026 146.213C160.118 146.578 160.205 146.926 160.367 147.565C161.683 145.176 162.789 143.011 164.027 140.925C165.993 137.597 168.185 134.349 165.698 130.318C165.521 130.026 165.605 129.575 165.554 129.2C165.164 126.664 164.774 124.127 164.384 121.591C164.301 121.603 164.228 121.621 164.145 121.634C164.145 122.52 164.137 123.409 164.137 124.296C164.022 124.317 163.906 124.337 163.789 124.35C163.553 123.789 163.319 123.237 163.201 122.939C162.766 123.876 162.275 124.929 161.791 125.981C161.603 125.917 161.415 125.852 161.216 125.782C161.334 122.084 161.441 118.38 161.559 114.682C161.559 114.614 161.609 114.541 161.625 114.468C162.59 111.504 162.384 110.996 159.708 109.561C159.54 109.474 159.388 109.245 159.331 109.053C158.394 105.44 157.45 101.829 156.568 98.1942C156.411 97.5364 156.52 96.8113 156.511 96.1249C152.578 105.882 148.673 115.545 144.163 124.923C140.555 132.419 137.447 139.884 136.37 148.276C135.397 155.848 136.597 164.294 141.229 171.272C141.075 167.178 140.939 163.467 140.804 159.755C140.947 159.745 141.091 159.734 141.235 159.724C141.408 160.206 141.581 160.687 141.75 161.153C143.334 160.065 142.645 159.007 142.387 157.436C141.905 154.535 142.629 151.434 142.861 148.258C143.532 149.691 144.121 150.937 144.617 151.983C145.078 151.419 145.552 150.947 145.909 150.383C146.581 149.361 147.179 148.255 147.808 147.166ZM123.425 380.105C125.581 380.397 127.728 380.691 129.884 380.983C130.257 381.233 130.635 381.473 131.008 381.724C130.966 381.864 130.924 382.003 130.882 382.143C129.528 382.166 128.177 382.196 126.608 382.221C132.581 384.582 136.32 384.535 139.886 382.301C137.775 382.662 135.36 383.081 132.985 383.49C136.495 382.089 139.901 380.722 143.316 379.353L143.255 379.42C143.561 379.369 143.866 379.318 144.412 379.232C140.625 383.458 140.644 383.566 136.855 384.237C134.533 384.65 132.148 384.674 129.797 384.871C135.44 385.584 141.071 386.248 146.094 382.149C145.198 382.246 144.486 382.322 143.782 382.396C143.759 382.307 143.729 382.22 143.706 382.131C145.04 381.416 146.372 380.692 148.009 379.815C147.265 379.761 146.819 379.736 146.959 379.744C150.591 375.926 154.397 371.91 158.212 367.9C158.297 367.759 158.374 367.619 158.46 367.485C159.07 366.763 159.685 366.031 160.295 365.309C158.549 364.561 160.039 363.815 160.363 363.191C161.506 361 162.75 358.869 163.953 356.715C163.773 356.614 163.582 356.507 163.402 356.406C162.074 358.782 160.735 361.151 159.407 363.527C159.208 363.422 159.008 363.309 158.817 363.202C159.624 361.758 160.43 360.315 161.234 358.864C161.163 358.822 161.092 358.779 161.021 358.737C160.236 359.753 159.46 360.767 158.673 361.774C158.502 361.645 158.326 361.526 158.156 361.396C159.741 358.81 161.324 356.215 162.908 353.629C162.807 353.568 162.7 353.518 162.599 353.457C161.479 355.057 160.367 356.654 159.25 358.262C159.082 358.141 158.924 358.026 158.755 357.905C159.098 357.25 159.451 356.601 159.86 355.835C159.451 355.852 159.131 355.778 159.038 355.887C156.653 358.882 153.901 361.685 152.069 364.997C150.989 366.957 150.639 369.293 149.24 371.35C147.769 373.504 143.393 376.759 140.811 376.411C142.05 374.98 144.735 375.732 145.407 372.971C145.758 371.531 148.121 370.634 148.587 369.173C149.92 365.005 153.097 362.009 154.98 358.219C155.98 356.21 157.404 354.422 158.641 352.535C158.416 352.359 158.191 352.183 157.958 352.009C156.551 353.767 155.155 355.532 153.603 357.464C152.687 354.001 156.347 352.751 156.624 349.892C156.124 350.095 155.503 350.157 155.368 350.44C154.371 352.595 152.956 354.252 150.647 355.058C149.556 355.436 148.407 355.794 147.451 356.406C140.518 360.883 133.012 364.075 124.79 364.667C118.021 365.15 111.178 364.697 104.367 364.571C99.1385 364.477 94.4912 362.832 90.4913 359.286C88.7296 357.724 86.5743 356.614 84.6006 355.303C84.3888 355.589 84.183 355.865 83.9711 356.151C91.209 359.914 97.2641 365.096 102.381 371.4C102.522 371.244 102.669 371.078 102.811 370.922C101.038 368.94 99.2673 366.967 97.379 364.869C101.3 365.611 104.986 366.309 109.132 367.09C107.32 367.822 105.976 368.359 104.64 368.894C104.936 369.249 105.244 369.619 105.859 370.351C104.948 370.082 104.535 369.945 104.103 369.838C103.717 369.738 103.324 369.681 102.482 369.515C108.68 375.366 115.619 378.594 123.425 380.105ZM114.874 241.298C111.13 240.915 107.449 240.75 104.548 244.09C105.089 244.324 105.522 244.507 106.237 244.818C104.441 245.167 102.973 245.451 101.504 245.735C101.543 245.924 101.582 246.112 101.619 246.292C103.225 246.077 104.831 245.861 106.437 245.646C106.476 245.868 106.521 246.081 106.56 246.304C103.357 247.111 99.9116 247.437 97.0211 248.872C94.5147 250.123 92.6444 252.636 90.4875 254.591C90.5647 254.727 90.6419 254.862 90.717 254.99C92.0599 254.651 93.4108 254.311 94.7536 253.972C92.3162 255.293 89.288 255.738 87.3957 257.446C85.3924 259.26 84.4539 262.26 83.0569 264.739C83.2393 264.883 83.4278 265.016 83.6102 265.159C84.9362 264.515 86.2602 263.863 87.5862 263.219C87.7909 263.382 87.9956 263.546 88.2003 263.71C87.7658 263.931 87.3312 264.153 87.1857 264.224C89.1077 264.101 90.9609 263.978 92.806 263.857C92.8472 264.191 92.8944 264.515 92.9356 264.849C91.3397 265.105 89.752 265.462 88.1457 265.575C86.1023 265.728 83.6664 264.939 82.4978 267.265C81.4904 269.276 81.0157 271.557 80.2458 273.929C82.585 273.038 84.6655 272.247 86.7358 271.449C86.8232 271.66 86.9127 271.878 87.0002 272.089C86.1066 272.469 85.2191 272.839 84.3256 273.219C84.35 273.282 84.3663 273.347 84.3907 273.41C85.2524 273.244 86.108 273.089 86.9696 272.923C85.3727 274.643 83.747 276.112 81.1721 275.624C80.5224 275.504 79.5373 275.658 79.1133 276.092C77.2597 277.954 75.5461 279.961 73.7758 281.915C80.6816 280.88 87.5826 279.485 93.6182 275.544C93.5469 275.329 93.4777 275.123 93.4064 274.908C91.7301 275.46 90.0539 276.012 88.3857 276.561C88.2942 276.369 88.2028 276.177 88.1032 275.987C92.1182 274.338 96.8396 273.716 98.7658 268.934C98.4576 268.632 98.0074 268.178 97.2531 267.438C100.49 266.355 103.631 265.468 104.101 261.975C103.848 261.961 103.198 261.909 102.543 261.868C102.538 261.68 102.536 261.5 102.531 261.311C103.769 260.999 105.007 260.687 106.244 260.375C106.224 260.294 106.193 260.207 106.173 260.126C104.808 260.307 103.452 260.494 102.087 260.674C102.056 260.518 102.025 260.362 102.003 260.205C102.69 259.928 103.37 259.653 104.136 259.348C103.447 259.143 102.824 258.956 101.576 258.581C105.291 258.196 108.317 257.881 111.352 257.564C111.387 257.262 111.423 256.96 111.459 256.659C111.081 256.694 110.704 256.737 110.334 256.77C110.413 256.638 110.493 256.514 110.572 256.383C112.222 255.967 113.873 255.551 115.523 255.135C115.51 255.052 115.498 254.969 115.484 254.878C114.824 254.889 114.156 254.902 113.497 254.914C113.466 254.792 113.442 254.66 113.411 254.539C114.812 253.747 116.218 252.945 117.619 252.152C117.544 251.991 117.3 251.467 117.306 251.456C119.456 250.432 121.615 249.44 123.782 248.446C124.639 248.058 125.714 247.133 126.309 247.379C128.488 248.276 130.207 247.55 132.154 246.706C133.401 246.159 134.957 246.155 136.369 246.195C137.869 246.238 139.357 246.613 140.934 246.861C140.718 246.45 140.58 246.175 140.328 245.687C142.47 246.129 144.33 246.513 146.181 246.89C146.199 246.791 146.217 246.692 146.235 246.592C145.42 246.229 144.606 245.866 143.626 245.425C145.673 245.356 147.432 245.3 148.84 245.255C148.931 244.354 148.994 243.753 148.996 243.726C146.737 242.272 144.761 240.781 142.59 239.676C141.008 238.86 140.918 236.489 138.55 236.483C135.288 236.479 131.99 235.614 128.776 235.899C124.367 236.296 120.029 237.415 115.659 238.232C115.689 238.457 115.71 238.676 115.741 238.901C116.704 239.002 117.682 239.023 118.623 239.242C119.117 239.358 119.535 239.821 119.983 240.13C119.502 240.441 119.013 240.754 118.532 241.064C117.31 241.166 116.088 241.233 114.874 241.298ZM109 308.58C106.856 306.968 104.712 305.355 102.249 303.505C102.53 308.954 105.009 312.78 108.094 316.282C110.682 319.212 113.541 321.918 115.986 324.961C118.053 327.531 120.6 329.171 123.608 330.247C129.911 332.49 136.46 333.043 143.066 332.799C146.372 332.671 149.667 332.091 153.297 331.675C150.894 329.62 148.912 327.933 146.937 326.243C150.221 326.948 153.161 328.067 155.013 331.01C157.165 330.468 159.349 329.917 161.679 329.33C161.471 328.917 161.323 328.429 161.213 328.44C159.449 328.54 157.691 328.699 155.931 328.85C155.907 328.753 155.88 328.647 155.856 328.55C157.441 328.151 159.027 327.751 160.588 327.357C160.57 323.702 156.92 324.58 155.082 322.511C156.56 322.879 157.525 323.127 158.481 323.368C158.551 323.169 158.624 322.979 158.694 322.78C156.461 322.009 154.225 321.229 151.992 320.457C152.046 320.297 152.102 320.145 152.149 319.987C153.144 320.184 154.138 320.373 155.134 320.569C155.17 320.336 155.204 320.095 155.232 319.864C152.52 319.515 149.8 319.167 146.925 318.79C147.528 318.586 147.981 318.437 148.353 318.309C146.704 315.625 144.037 317.331 141.888 316.383C143.316 316.212 144.744 316.042 146.181 315.869C146.188 315.626 146.194 315.375 146.201 315.132C144.331 315.018 142.462 314.904 140.602 314.795C140.614 314.672 140.623 314.54 140.627 314.419C144.73 314.246 148.834 314.072 152.937 313.899C152.922 313.739 152.918 313.585 152.903 313.425C148.225 313.502 143.547 313.579 138.871 313.665C138.867 313.476 138.854 313.29 138.848 313.094C142.229 312.922 145.607 312.741 148.996 312.567C149.01 312.314 149.015 312.063 149.029 311.81C145.063 311.708 141.097 311.605 137.131 311.503C137.134 311.313 137.14 311.13 137.143 310.94C140.393 310.896 143.637 310.862 147.434 310.809C144.154 308.854 141.001 310.2 138.091 309.134C141.055 309.05 144.019 308.966 147.248 308.875C143.039 306.957 139.096 307.047 135.182 308.757C130.114 310.973 124.916 309.872 119.773 309.3C116.241 308.907 112.761 308.071 108.812 307.353C110.536 308.563 111.853 309.488 113.359 310.546C112.827 310.723 112.698 310.791 112.562 310.799C112.336 310.822 112.109 310.81 111.876 310.808C110.95 310.069 109.971 309.325 109 308.58ZM225.717 253.844C227.982 251.465 230.205 249.053 232.517 246.722C233.675 245.552 235.017 244.56 236.223 243.438C236.816 242.892 237.321 242.231 237.866 241.628C237.734 241.515 237.602 241.402 237.472 241.297C236.778 241.851 236.075 242.407 235.38 242.961C235.258 242.82 235.13 242.688 235.009 242.547C236.072 241.374 237.136 240.202 238.2 239.03C238.064 238.901 237.92 238.773 237.784 238.644C236.567 239.855 235.341 241.068 233.795 242.612C234.395 240.592 234.813 239.143 235.267 237.634C232.782 239.207 230.333 240.755 227.892 242.3C227.851 242.241 227.81 242.183 227.77 242.124C231.765 237.768 235.758 233.403 239.753 229.046C239.952 229.22 240.144 229.404 240.343 229.578C237.686 232.417 235.037 235.255 232.381 238.095C232.527 238.23 232.673 238.365 232.817 238.493C236.19 235.8 239.038 232.593 241.495 229.029C241.703 228.727 241.183 227.928 240.945 227.187C241.282 226.784 241.793 226.182 242.295 225.581C241.646 225.702 241.1 225.857 240.543 225.902C239.574 225.983 238.514 225.768 237.648 226.09C236.178 226.641 234.865 227.609 233.41 228.217C231.902 228.856 230.296 229.278 228.731 229.793C236.185 225.71 244.514 223.395 251.234 217.697C248.84 217.413 246.423 217.213 244.288 217.889C242.345 218.508 240.78 220.254 238.909 221.226C232.265 224.665 226.179 228.886 220.713 233.992C220.317 234.368 220.169 235.008 219.691 235.946C221.418 234.297 222.672 233.094 223.928 231.899C224.063 232.028 224.199 232.158 224.335 232.287C223.347 233.828 222.361 235.376 221.49 236.733C222.173 236.474 223.115 236.116 224.057 235.758C224.161 235.999 224.255 236.234 224.358 236.474C224.057 236.783 223.659 237.047 223.478 237.42C223.299 237.801 223.185 238.337 223.313 238.71C223.435 239.058 224.011 239.567 224.227 239.504C225.396 239.123 226.573 238.672 227.646 238.083C228.826 237.441 229.915 236.606 231.042 235.857C231.203 236.084 231.353 236.304 231.513 236.531C230.513 237.308 229.511 238.077 228.489 238.869C228.73 238.903 229.141 238.963 230.206 239.125C228.227 240.39 226.758 241.32 225.047 242.414C225.18 242.941 225.477 244.123 225.829 245.515C225.132 245.484 224.693 245.517 224.27 245.443C221.121 244.894 217.971 244.379 214.841 243.738C212.392 243.236 210.617 244.045 208.686 245.634C203.535 249.878 198.938 254.472 195.964 260.56C193.78 265.037 191.501 269.443 191.679 274.754C192.083 274.79 192.515 274.828 193.059 274.871C192.548 275.508 192.175 275.972 191.767 276.471C193.161 276.266 194.399 276.092 195.635 275.91C195.686 276.112 195.737 276.314 195.788 276.517C195.522 276.894 195.249 277.281 194.785 277.932C195.964 277.385 196.789 277.005 197.151 276.836C197.996 277.39 198.53 277.737 199.136 278.127C197.719 278.751 196.403 279.332 195.01 279.95C195.239 280.685 195.416 281.286 195.42 281.302C198.807 281.086 201.863 280.582 204.868 280.798C206.813 280.936 206.941 279.19 208.199 278.718C210.637 277.811 212.996 276.691 215.347 275.573C216.068 275.228 216.652 274.607 217.302 274.116C217.215 274.009 217.134 273.891 217.047 273.784C214.47 275.097 211.884 276.412 209.307 277.724C212.974 274.828 216.254 271.289 221.047 270.744C221 269.946 221.124 269.312 221.514 269.016C222.726 268.09 224.121 267.377 225.284 266.395C226.036 265.758 226.503 264.779 227.282 263.705C226.39 264.024 225.84 264.231 225.248 264.441C226.162 263.152 226.985 261.98 227.808 260.808L227.786 260.857C228.959 259.846 230.139 258.826 231.312 257.815C231.237 257.722 231.16 257.621 231.085 257.528C230.325 258.029 229.559 258.541 228.8 259.043C228.722 258.941 228.637 258.842 228.56 258.741C229.079 258.137 229.598 257.533 230.264 256.762C228.713 256.447 227.363 256.176 226.005 255.907C226.271 255.53 226.632 255.017 227.38 253.958C226.043 254.933 225.271 255.489 224.501 256.053C224.441 255.948 224.374 255.853 224.313 255.748C224.768 255.065 225.216 254.383 225.672 253.7L225.717 253.844ZM177.696 253.584L177.651 253.509C174.879 250.634 172.107 247.76 169.335 244.885C169.415 244.796 169.504 244.705 169.585 244.616C170.32 245.11 171.048 245.607 171.784 246.102C171.456 245.212 170.978 244.342 170.245 243.993C166.293 242.104 157.361 245.647 155.44 249.731C153.518 253.815 154.435 257.76 156.274 261.472C158.628 266.2 161.333 270.754 163.908 275.374C168.452 283.536 170.937 292.029 168.191 301.409C167.854 302.562 167.935 303.841 167.839 305.062C167.813 305.439 167.699 306.01 167.894 306.168C169.813 307.776 168.906 310.046 169.329 311.997C169.355 312.102 169.479 312.183 169.59 312.319C169.838 311.938 170.076 311.585 170.181 311.421C170.982 311.968 171.727 312.469 172.372 312.909C173.024 316.998 170.155 318.996 167.162 320.775C167.124 320.724 166.929 320.429 166.48 319.776C165.896 322.17 165.419 324.133 164.944 326.104C165.079 326.131 165.225 326.163 165.363 326.197C165.91 324.716 166.457 323.234 167.004 321.753C167.401 321.929 167.79 322.106 168.187 322.282C167.107 324.517 166.018 326.746 164.938 328.982C164.693 328.897 164.45 328.821 164.205 328.736C164.443 329.305 164.687 329.863 164.959 330.501C165.751 329.07 166.358 327.754 167.15 326.564C168.683 324.284 170.295 322.043 171.944 319.845C173.404 317.893 174.979 316.015 176.48 314.087C177.176 313.196 177.83 312.274 178.496 311.366L178.431 311.451C179.499 309.614 180.558 307.772 181.626 305.935C181.29 305.762 180.944 305.582 180.607 305.409C180.506 306.028 180.394 306.642 180.292 307.262C180.071 307.171 179.86 307.087 179.64 306.996C179.951 304.205 180.269 301.404 180.614 298.338C181.083 298.9 181.306 299.171 181.617 299.549C181.974 297.487 182.304 295.552 182.634 293.618C182.802 293.636 182.968 293.646 183.144 293.662C183.05 295.132 182.956 296.602 182.86 298.064C183.869 294.831 185.547 291.489 182.018 288.753C181.846 288.616 181.995 288.044 182.014 287.678C182.053 286.842 182.231 285.979 182.12 285.163C181.962 284.023 181.589 282.92 181.305 281.795C181.516 281.742 181.724 281.681 181.942 281.626C182.689 284.589 183.438 287.56 184.185 290.523C184.46 290.454 184.735 290.385 185.008 290.307C184.035 286.445 183.059 282.575 182.086 278.714C182.341 278.632 182.587 278.553 182.842 278.471C183.292 279.606 183.739 280.734 184.197 281.867C183.909 280.415 183.612 278.966 183.326 277.523C183.571 277.47 183.817 277.425 184.062 277.372C184.902 281.491 185.743 285.61 186.575 289.731C186.839 283.439 184.661 277.565 183.07 271.594C183.281 271.541 183.501 271.494 183.711 271.441C184.451 273.588 185.179 275.729 185.919 277.877C185.991 277.858 186.056 277.842 186.131 277.832C185.657 275.506 185.19 273.178 184.591 270.221C185.883 271.832 186.927 272.766 187.513 273.927C189.435 277.765 189.187 281.935 188.605 285.974C188.248 288.483 187.001 290.873 186.144 293.31C184.915 296.832 183.676 300.347 182.437 303.862C182.644 303.931 182.848 303.991 183.055 304.06C189.919 292.074 192.455 273.603 187.695 269.43C188.088 270.579 188.445 271.617 188.801 272.655C187.166 270.949 185.811 269.121 184.405 267.331C184.064 266.901 183.515 266.634 183.122 266.234C182.679 265.777 182.205 265.294 181.927 264.736C181.447 263.755 181.242 262.635 180.69 261.707C179.762 260.141 178.654 258.681 177.629 257.174C182.778 258.692 183.608 263.967 186.798 267.202C185.063 263.627 183.222 260.113 181.367 256.611C181.19 256.285 180.904 256.004 180.604 255.77C179.658 255.018 178.671 254.311 177.696 253.584ZM73.4928 217.855C71.003 220.265 68.5011 222.661 66.0357 225.099C65.5814 225.549 65.3197 226.183 64.9769 226.735C63.1499 229.658 61.2926 232.563 59.5142 235.508C58.2379 237.612 57.0548 239.779 55.6073 242.297C56.3624 241.503 56.8187 241.027 57.281 240.54C56.9183 242.173 56.0429 243.478 55.4207 244.901C54.8187 246.301 54.4759 247.808 54.0197 249.275C58.0976 243.916 60.2381 241.896 64.997 240.808C69.1632 239.861 73.4468 238.867 77.6698 238.896C88.2828 238.951 97.4223 235.924 104.673 227.931C105.394 227.138 106.263 226.488 107.052 225.764C111.441 221.739 115.961 217.93 121.715 215.911C123.297 215.358 124.817 214.596 126.264 213.749C126.833 213.416 127.095 212.575 127.676 211.705C125.588 212.094 124.191 212.351 122.795 212.617C122.738 212.39 122.673 212.166 122.615 211.939C123.551 211.109 124.492 210.269 125.427 209.439C125.301 209.281 125.183 209.122 125.057 208.964C122.99 210.183 120.917 211.411 118.849 212.63C118.746 212.458 118.65 212.284 118.547 212.112C120.503 210.827 122.459 209.542 124.414 208.256C124.343 208.145 124.272 208.034 124.201 207.923C122.56 208.819 120.927 209.712 119.284 210.6C119.195 210.45 119.097 210.303 119.008 210.153C120.505 209.164 122.01 208.174 123.508 207.185C123.435 207.065 123.368 206.936 123.294 206.817C122.019 207.285 120.749 207.742 119.473 208.21C119.424 208.085 119.375 207.96 119.327 207.834C119.971 207.387 120.606 206.935 121.25 206.488C121.207 206.421 121.167 206.363 121.116 206.298C120.18 206.68 119.244 207.063 118.308 207.445C118.243 207.324 118.17 207.204 118.105 207.083C118.703 206.553 119.298 206.016 119.896 205.486C119.809 205.345 119.732 205.209 119.644 205.067C118.56 205.341 117.485 205.612 116.401 205.885C116.374 205.78 116.348 205.675 116.319 205.561C117.273 205.011 118.227 204.46 119.175 203.92C119.138 203.843 119.101 203.766 119.063 203.681C117.823 204.054 116.576 204.429 115.336 204.802C115.275 204.662 115.22 204.512 115.159 204.373C115.777 203.993 116.39 203.623 117.335 203.04C116.049 203.227 114.54 203.693 114.398 203.436C113.26 201.278 112.245 203.084 111.331 203.486C110.154 204.007 109.106 204.796 108.002 205.471C107.901 205.307 107.801 205.151 107.7 204.987C109.393 203.785 111.08 202.594 112.773 201.392C112.702 201.281 112.631 201.17 112.56 201.058C111.119 201.895 109.678 202.732 108.237 203.569C108.14 203.421 108.052 203.28 107.955 203.132C108.923 202.397 109.89 201.662 110.856 200.92C110.807 200.829 110.748 200.731 110.699 200.64C109.493 201.212 108.284 201.775 107.077 202.346C107.018 202.214 106.951 202.085 106.892 201.953C107.336 201.531 107.779 201.101 108.445 200.468C107.25 200.881 106.337 201.559 105.598 201.393C103.347 200.892 101.374 200.847 99.7877 202.849C98.3044 204.712 96.7665 206.529 95.2508 208.366C95.1454 208.29 95.04 208.213 94.9347 208.136C95.275 207.404 95.6235 206.671 95.9438 205.996C95.1986 205.702 94.4796 205.409 93.6574 205.083C94.4323 204.13 95.068 203.341 95.7058 202.56C94.3092 203.3 93.3224 204.573 92.0106 205.205C90.9372 205.725 89.4899 205.479 87.8168 205.599C88.6966 204.482 89.2112 203.827 89.7318 203.162C87.3067 204.565 85.5099 206.448 84.7123 209.12C84.2121 209.9 83.7221 210.687 83.222 211.467C82.6732 212.191 82.1264 212.923 81.5776 213.647C81.454 213.566 81.3303 213.485 81.1987 213.407C82.0247 211.735 82.8588 210.061 83.6869 208.397C83.5613 208.342 83.4418 208.278 83.3162 208.223C82.2998 209.823 81.2814 211.414 80.265 213.013C80.1313 212.927 79.9996 212.848 79.8658 212.761C80.4762 211.462 81.0865 210.163 81.6968 208.864C81.5874 208.805 81.4801 208.755 81.3626 208.698C79.9003 210.918 78.43 213.14 76.8185 215.587C76.6593 214.956 76.5716 214.607 76.3553 213.749C75.2377 215.357 74.3481 216.64 73.4484 217.918L73.4928 217.855ZM139.269 297.29L139.156 297.25C141.989 300.127 144.608 303.246 147.691 305.819C153.673 310.812 158.673 316.483 161.932 323.609C162.295 324.404 162.716 325.185 163.181 326.11C165.634 318.706 166.758 311.423 166.091 303.591C164.953 305.015 166.561 307.503 163.648 307.755C163.553 306.082 163.461 304.418 163.368 302.754C163.562 302.739 163.748 302.727 163.943 302.712C164.101 303.749 164.261 304.793 164.419 305.83C164.956 302.534 165.174 299.268 165.442 295.997C165.485 295.418 165.694 294.848 165.827 294.281C167.473 294.77 166.772 293.423 166.694 292.978C165.93 288.822 165.086 284.686 164.239 280.543C164.137 280.035 163.868 279.104 163.761 279.122C161.796 279.351 162.604 277.674 162.222 276.875C161.897 276.2 161.818 275.41 161.63 274.665C161.374 274.739 161.119 274.82 160.862 274.893C161.374 276.925 161.886 278.958 162.405 281.014C161.754 281.333 161.241 281.583 160.59 281.902C160.478 280.027 160.363 278.239 160.258 276.458C158.429 276.471 158.433 277.408 158.839 278.675C159.356 280.284 159.944 281.901 160.154 283.553C160.24 284.203 159.402 284.974 158.983 285.7C158.811 285.631 158.639 285.562 158.465 285.486C158.444 286.154 158.417 286.832 158.396 287.501C157.503 284.471 157.153 281.442 156.813 278.42C156.779 278.118 156.708 277.628 156.847 277.533C159.183 276.083 157.671 274.044 157.9 272.256C157.084 272.126 156.457 272.026 155.756 271.909C155.719 270.533 155.939 269.151 155.564 267.971C155.252 267.008 154.217 266.279 153.545 265.492C152.087 267.832 150.801 269.895 149.512 271.951C149.102 271.451 149.013 271.13 149.091 270.86C150.033 267.635 151.042 264.436 151.919 261.192C152.116 260.471 152.182 259.232 151.787 258.927C150.259 257.779 150.165 256.485 150.748 254.874C150.869 254.534 150.678 254.083 150.628 253.682C150.513 253.668 150.408 253.66 150.292 253.646C149.915 254.878 149.543 256.1 149.147 257.396C148.835 257.182 148.566 257 148.254 256.786C147.851 257.611 147.468 258.414 146.934 259.504C146.66 258.996 146.366 258.683 146.43 258.529C147.519 255.818 148.656 253.129 149.862 250.233C147.213 249.893 144.65 249.454 142.074 249.269C137.903 248.968 135.387 250.592 133.862 254.473C132.705 257.391 131.578 260.327 130.621 263.323C130.141 264.831 129.715 266.522 129.905 268.059C130.733 274.825 131.672 281.588 132.842 288.311C133.122 289.902 134.435 291.319 135.267 292.814L135.229 292.798C136.574 294.31 137.922 295.804 139.269 297.29ZM187.252 359.754C192.501 361.229 197.833 362.003 203.441 361.692C201.895 359.86 199.835 360.663 198.246 360.16C194.85 359.078 191.752 357.061 188.535 355.426C188.676 355.064 188.809 354.703 188.948 354.332C189.905 354.513 190.939 354.519 191.794 354.906C193.931 355.875 195.983 357.054 198.094 358.089C200.34 359.184 202.639 360.18 204.897 361.256C206.274 361.907 207.576 363.009 209.001 363.201C212.521 363.682 216.1 363.753 219.652 363.986C220.063 364.149 220.468 364.323 220.879 364.486C223.272 364.968 225.637 365.611 228.055 365.889C232.034 366.349 235.941 366.863 239.535 368.867C240.576 369.449 241.934 369.477 243.142 369.766C243.199 369.614 243.255 369.462 243.313 369.318C242.607 368.532 241.894 367.748 241.188 366.961C241.335 366.76 241.492 366.566 241.64 366.365C244.146 369.582 247.415 371.255 251.37 371.619C249.337 369.462 246.922 367.694 245.067 365.458C241.572 361.25 238.446 356.734 235.076 352.409C233.323 350.164 231.527 347.922 229.51 345.924C224.972 341.437 220.292 337.106 215.665 332.71C214.682 333.517 214.213 333.911 213.7 334.333C212.704 333.284 211.816 332.354 210.926 331.416C210.841 331.489 210.756 331.562 210.671 331.635C211.481 332.869 212.299 334.101 213.107 335.326C212.887 335.546 212.669 335.773 212.449 335.992C208.636 327.077 199.981 324.109 192.889 319.215C194.075 320.303 195.263 321.398 196.449 322.485C193.66 321.044 191.298 319.117 188.792 317.398C188.054 316.895 186.627 316.523 185.972 316.895C180.396 320.065 175.637 323.986 173.79 330.582C171.316 339.437 172.658 347.425 178.778 354.433C181.074 357.057 183.723 359.205 187.312 359.825L187.252 359.754ZM184.713 185.376C182.835 184.343 180.957 183.309 179.079 182.276C178.238 181.739 177.397 181.202 176.354 180.543C182.009 179.703 185.353 184.095 189.937 185.385C186.765 182.973 183.489 180.725 180.061 178.765C178.612 177.933 177.025 177.335 175.06 178.174C173.693 178.76 171.879 178.356 170.266 178.306C169.311 178.272 168.364 178.063 167.41 177.933C168.01 178.436 168.666 178.581 169.304 178.756C169.942 178.931 170.566 179.152 171.193 179.356C171.161 179.433 171.119 179.504 171.087 179.581C167.102 179.337 163.125 179.09 159.141 178.846C159.129 179.073 159.111 179.31 159.1 179.537C162.245 179.829 165.39 180.121 168.535 180.413C168.519 180.59 168.495 180.768 168.479 180.944C164.24 180.781 159.994 180.629 155.755 180.466C155.745 180.701 155.744 180.934 155.732 181.161C158.67 181.35 161.603 181.549 164.541 181.739C164.526 181.949 164.512 182.168 164.504 182.376C160.603 182.258 156.703 182.147 152.802 182.028C152.796 182.245 152.783 182.464 152.777 182.681C155.659 182.815 158.54 182.95 161.414 183.087C161.4 183.305 161.386 183.524 161.373 183.743C156.984 183.669 152.597 183.604 148.337 183.533C151.075 179.648 155.136 178.013 159.85 177.565C158.763 177.521 157.667 177.47 156.58 177.425C156.589 177.122 156.591 176.82 156.6 176.516C162.13 176.543 167.666 176.559 173.533 176.588C167.545 174.816 161.825 174.923 156.162 176.11C152.117 176.957 148.935 179.283 146.873 183.015C146.305 184.036 145.376 184.856 144.791 185.882C143.997 187.27 141.529 188.435 143.186 190.299C147.271 194.9 151.57 199.362 158.138 200.298C166.992 201.562 175.407 204.297 183.39 208.252C189.369 211.222 195.073 214.77 199.503 219.887C205.282 226.568 211.114 233.149 218.419 238.238C218.9 238.574 219.192 239.189 219.574 239.678C219.44 239.832 219.315 239.984 219.182 240.139C218.408 239.731 217.558 239.429 216.883 238.901C211.793 234.889 206.561 231.024 201.737 226.703C198.851 224.125 196.642 220.789 194.09 217.834C193.338 216.964 192.444 216.216 191.614 215.418C191.519 215.52 191.425 215.621 191.33 215.722C191.612 216.194 191.894 216.665 192.17 217.146C192.035 217.327 191.898 217.499 191.771 217.678C186.519 211.485 178.153 211.742 171.771 207.143C172.044 207.883 172.158 208.199 172.398 208.845C170.608 208.366 169.13 207.963 167.68 207.571C167.669 207.763 167.645 208.079 167.582 208.887C165.027 207.25 162.772 205.812 160.523 204.364C160.369 204.265 160.215 204.166 160.061 204.067C158.948 203.202 157.835 202.338 156.722 201.473C156.62 201.576 156.517 201.68 156.414 201.783C156.548 202.146 156.674 202.51 156.756 202.73C155.633 202.919 154.585 203.097 153.537 203.275C153.536 203.542 153.537 203.817 153.543 204.083C151.333 201.936 149.121 199.781 146.911 197.635C146.791 197.742 146.672 197.85 146.553 197.957C148.204 199.832 149.853 201.698 151.513 203.57C151.349 203.706 151.179 203.852 151.016 203.988C149.426 202.253 147.842 200.508 146.237 198.786C144.631 197.056 143.003 195.339 141.275 193.502C141.687 195.137 142.079 196.691 142.473 198.254C142.371 198.297 142.27 198.339 142.161 198.384C141.725 197.642 141.282 196.91 140.845 196.167C140.732 196.23 140.609 196.287 140.496 196.35C140.845 197.734 141.192 199.111 141.54 200.495C141.379 200.536 141.227 200.583 141.065 200.624C140.475 198.284 139.888 195.952 139.298 193.612C139.037 193.532 138.782 193.441 138.52 193.361C137.025 195.382 135.747 197.616 133.989 199.377C132.196 201.172 130.912 202.804 132.142 205.396C132.158 205.426 131.934 205.56 131.38 205.992C131.146 204.312 130.497 202.762 130.835 201.472C131.964 197.114 134.596 193.73 138.47 191.35C138.805 191.145 138.972 190.681 139.527 189.912C134.631 191.31 129.496 198.348 129.252 203.283L129.264 203.125C129.085 204.771 128.66 206.429 128.801 208.046C128.956 209.824 129.509 211.605 130.109 213.305C132.782 220.906 136.52 227.575 144.989 230.047C148.443 231.053 151.843 232.22 155.287 233.255C156.338 233.567 157.437 233.694 158.522 233.903C158.538 233.796 158.554 233.688 158.564 233.591C155.977 232.168 153.388 230.737 150.801 229.314C151.029 228.921 151.265 228.525 151.492 228.132C152.147 228.751 152.732 229.464 153.467 229.959C157.522 232.665 162.027 234.156 166.858 234.617C173.312 235.238 179.786 235.664 186.236 236.337C189.885 236.717 193.499 237.399 197.116 237.994C199.745 238.425 202.369 238.9 204.97 239.459C211.019 240.758 217.05 242.123 223.09 243.459C223.207 243.205 223.324 242.952 223.433 242.701C221.323 239.995 219.251 237.271 217.098 234.602C214.104 230.879 211.758 226.933 211.911 221.909C211.938 221.093 211.73 220.198 211.394 219.447C208.454 212.801 205.542 206.13 202.426 199.57C201.55 197.733 199.993 196.231 198.749 194.573C198.593 194.673 198.44 194.78 198.284 194.88C198.568 195.394 198.853 195.907 199.137 196.421C197.856 196.426 196.848 196.111 196.007 195.54C194.177 194.288 192.562 192.043 190.633 191.763C187.67 191.339 186.636 189.49 185.243 187.447C186.781 187.645 188.196 187.831 189.611 188.016C189.75 187.852 189.888 187.68 190.035 187.513C188.732 186.542 187.429 185.57 186.134 184.596C186.057 184.667 185.974 184.748 185.897 184.819C186.171 185.293 186.438 185.768 186.712 186.242C186.603 186.355 186.486 186.471 186.377 186.584C185.829 186.188 185.27 185.778 184.713 185.376ZM204.649 297.54C210.627 299.615 216.493 301.658 222.677 303.802C221.656 303.81 220.891 303.813 220.126 303.817C220.13 303.902 220.134 303.987 220.139 304.072C221.404 304.347 222.661 304.624 224.2 304.96C223.832 305.31 223.602 305.524 223.511 305.607C223.983 306.082 224.42 306.618 224.953 307.026C225.96 307.814 226.925 308.81 228.086 309.215C229.347 309.646 230.812 309.656 232.178 309.579C235.856 309.392 239.576 309.78 243.115 308.053C245.644 306.821 248.445 306.158 251.106 305.178C252.61 304.626 254.228 304.184 255.513 303.275C258.428 301.222 261.791 300.4 265.08 300.579C270.87 300.885 275.588 297.964 280.772 296.141C277.664 295.995 274.556 295.848 271.31 295.702C271.788 296.778 272.204 297.715 272.621 298.652C272.486 298.832 272.359 299.011 272.222 299.183C267.497 297.231 264.226 292.821 259.167 290.91C259.981 292.16 260.694 293.246 261.703 294.791C260.5 294.389 259.552 294.248 258.801 293.792C257.559 293.029 256.567 291.789 255.264 291.231C252.004 289.831 248.648 288.636 245.285 287.512C244.167 287.14 242.903 287.243 241.369 287.096C242.029 288.522 242.438 289.427 242.889 290.398C242.517 290.492 242.03 290.778 241.815 290.643C239.538 289.15 237.106 288.171 234.373 287.809C232.754 287.597 231.198 286.956 229.585 286.699C228.816 286.583 227.967 286.935 227.158 287.07C227.327 287.673 227.458 288.295 227.682 288.876C227.967 289.596 228.328 290.28 228.853 291.405C225.952 290.75 223.353 290.371 220.907 289.542C217.942 288.532 215.055 287.831 211.976 289.029C212.763 289.114 213.551 289.2 215.038 289.368C213.855 290.269 213.154 290.798 212.699 291.145C213.461 291.642 214.399 292.258 215.335 292.866C213.44 293.404 210.888 294.133 210.276 293.341C208.608 291.195 207.585 292.461 206.626 293.503C204.5 295.821 201.754 296.806 198.909 297.704C198.319 297.887 197.775 298.188 197.201 298.436C197.223 298.491 197.246 298.545 197.268 298.6C199.85 297.82 202.443 297.046 205.658 296.08C204.99 297.049 204.756 297.384 204.649 297.54ZM51.1294 143.13C51.047 143.383 50.9706 143.626 50.8882 143.88C55.1555 145.723 59.6688 147.143 63.6156 149.523C68.778 152.63 73.7128 156.234 78.3144 160.12C82.2915 163.474 86.4269 166.022 91.5966 166.872C95.2218 167.465 98.7935 168.528 102.43 168.929C104.952 169.206 108.324 169.647 109.926 168.322C111.663 166.885 112.528 168.303 113.723 168.062C114.379 167.932 115.122 168.287 115.829 168.427C115.845 168.354 115.859 168.273 115.875 168.2C115.061 167.872 114.255 167.541 113.44 167.212C113.476 167.048 113.523 166.89 113.559 166.726C114.749 166.977 115.939 167.228 117.136 167.469C117.168 167.358 117.198 167.238 117.23 167.127C115.934 166.558 114.638 165.989 113.244 165.376C113.646 164.991 113.911 164.743 114.179 164.477C113.334 164.062 112.494 163.869 111.995 163.357C110.882 162.217 109.886 160.962 108.942 159.675C108.029 158.442 107.148 158.767 106.026 159.369C104.185 160.358 102.311 161.321 100.356 162.029C99.5349 162.322 98.4677 161.945 97.5105 161.868C97.5242 161.649 97.5399 161.439 97.5455 161.222C98.3022 161.186 99.0529 161.161 99.8096 161.125C99.6292 160.99 99.4387 160.848 99.2583 160.713C99.8123 159.566 100.372 158.409 100.959 157.185C100.32 156.631 99.4381 155.863 98.5542 155.087C98.6794 154.935 98.8711 154.706 98.6874 154.933C95.3143 151.108 90.8122 152.087 86.5383 151.925C87.1853 151.693 87.8323 151.461 88.3621 151.276C87.0676 150.577 85.842 149.913 84.3368 149.096C85.9756 149.01 87.2502 148.947 88.4399 148.888C86.7854 148.263 85.1612 147.588 83.4846 147.046C82.707 146.794 81.6116 146.442 81.0518 146.781C78.1439 148.556 75.0944 147.516 72.2096 147.813C72.845 146.887 73.3815 146.114 73.9221 145.323C73.5877 145.055 73.4253 144.82 73.2269 144.784C69.6705 144.191 66.1577 144.146 62.6617 145.329C61.7194 145.653 60.5438 145.63 59.5579 145.405C56.7499 144.744 53.9477 143.901 51.1294 143.13ZM187.666 251.26C186.798 255.664 188.465 259.342 189.628 263.139C189.875 263.094 190.124 263.057 190.363 263.014C190.742 261.653 191.124 260.299 191.373 259.375C192.56 259.171 193.359 259.03 194.061 258.913C194.495 257.357 194.908 255.824 195.34 254.294C195.486 253.784 195.979 253.177 195.832 252.801C194.892 250.403 195.6 248.296 196.707 246.2C197.668 244.382 198.583 242.55 199.528 240.702C196.423 239.306 195.72 243.073 193.031 243.975C194.174 242.602 194.957 241.647 196.02 240.372C191.269 242.378 191.261 242.38 190.997 241.603C190.493 241.894 189.982 242.186 189.479 242.477C189.422 242.388 189.357 242.301 189.298 242.204C189.9 241.449 190.501 240.695 191.114 239.92C189.158 239.122 187.558 239.396 184.16 241.036C182.879 241.652 179.813 246.454 180.346 247.646C181.169 249.479 180.103 249.619 178.649 249.925C180.627 252.105 182.474 254.144 184.17 256.025C185.482 252.457 186.749 248.986 188.027 245.521C188.225 245.591 188.429 245.652 188.628 245.722C187.918 247.752 187.216 249.781 186.438 252.017C186.923 251.723 187.206 251.548 187.666 251.26ZM129.802 283.214C129.585 282.967 129.376 282.718 129.159 282.471C126.868 284.306 124.186 285.817 122.372 288.04C117.886 293.553 113.792 299.398 109.348 305.384C117.033 308.225 122.841 303.756 128.897 301.162C130.753 300.367 131.909 297.957 133.389 296.284C133.265 296.066 133.143 295.855 133.019 295.637C128.454 297.39 123.895 299.134 119.33 300.887C119.257 300.699 119.193 300.517 119.12 300.329C123.17 298.645 127.221 296.969 131.262 295.288C131.226 295.176 131.181 295.067 131.144 294.956C128.669 295.58 126.185 296.206 123.71 296.83C123.681 296.682 123.655 296.542 123.626 296.394C125.325 295.966 127.024 295.538 128.722 295.11C128.578 294.948 128.442 294.784 128.296 294.614C129.209 293.592 130.121 292.57 131.201 291.359C131.131 290.671 130.99 289.363 130.805 287.671C128.465 288.458 126.516 289.122 123.946 289.985C124.782 289.172 125.133 288.825 125.529 288.449C124.922 288.499 124.358 288.547 124.105 288.567C125.929 286.859 127.861 285.037 129.802 283.214ZM203.052 180.314C202.856 180.252 202.668 180.187 202.471 180.125C202.021 181.272 201.562 182.421 201.109 183.56C200.943 183.515 200.785 183.469 200.619 183.425C201.008 181.794 201.403 180.153 201.792 178.522C201.723 178.523 201.654 178.523 201.586 178.523C200.77 180.098 199.947 181.683 199.131 183.257C198.791 183.068 198.445 182.888 198.104 182.698C199.683 179.881 201.271 177.069 202.998 173.991C202.267 174.399 201.905 174.602 201.068 175.071C201.998 173.433 202.627 172.311 203.306 171.115C202.834 171.087 202.513 171.073 202.397 171.06C202.584 169.48 202.767 167.953 202.95 166.426C202.808 166.41 202.667 166.394 202.531 166.368C202.376 167.018 202.23 167.666 202.172 167.913C200.982 168.618 200.076 169.156 198.811 169.906C200.475 164.492 203.463 159.416 200.084 153.69C199.768 154.415 199.578 154.859 199.381 155.305C198.869 152.351 198.234 149.627 195.531 147.337C198.13 156.077 197.77 164.408 195.717 172.752C194.821 176.396 194.163 180.101 193.293 183.747C192.928 185.269 193.266 186.269 194.811 186.835C195.853 186.124 196.896 185.414 197.947 184.701C198.042 184.841 198.137 184.98 198.225 185.122C197.288 185.944 196.359 186.763 195.421 187.585C195.541 187.718 195.661 187.852 195.78 187.985C196.799 187.281 197.823 186.566 199.009 185.742C198.819 186.522 198.7 187.008 198.454 188.043C200.407 186.475 201.908 185.261 203.439 184.031C203.458 184.345 203.481 184.778 203.506 185.22C203.664 185.232 203.824 185.252 203.982 185.264C204.27 183.848 204.558 182.432 204.971 180.382C203.802 181.546 203.15 182.201 202.241 183.102C202.595 181.911 202.824 181.113 203.052 180.314ZM109.893 64.9784C109.684 65.005 109.476 65.0317 109.268 65.0584C108.578 62.3219 107.888 59.5855 107.198 56.849C107.053 56.8857 106.907 56.9224 106.77 56.9571C107.363 59.313 107.955 61.6609 108.549 64.0169C108.306 64.078 108.072 64.1372 107.831 64.2064C106.925 60.6118 106.019 57.0171 105.115 53.4305C104.896 53.4856 104.688 53.5467 104.47 53.6018C104.747 54.7028 105.025 55.8039 105.302 56.905C105.108 56.9539 104.908 57.013 104.714 57.0619C103.905 54.5018 103.098 51.9498 102.29 49.3897C102.091 49.4569 101.903 49.5301 101.705 49.5973C102.298 51.368 102.891 53.1388 103.483 54.9096C103.253 54.9849 103.022 55.0602 102.792 55.1355C102.058 52.875 101.333 50.6124 100.6 48.3519C100.385 48.4231 100.181 48.5004 99.967 48.5717C100.506 50.0286 101.038 51.4877 101.575 52.9366C101.395 53.0078 101.223 53.0769 101.043 53.1481C100.419 51.8674 99.8054 50.5928 99.09 49.1199C98.7026 49.6309 98.446 49.8075 98.4544 49.9776C98.5739 53.7964 98.4304 57.6642 98.9565 61.4236C99.5586 65.7234 101.048 69.7565 104.967 72.3678C107.903 74.3228 111.201 73.0008 111.983 69.5146C112.955 65.1795 112.47 61.005 110.903 56.8708C110.213 55.0557 109.068 54.0614 107.056 53.6904C108.029 57.5866 108.96 61.2784 109.893 64.9784ZM182.529 316.376C184.494 315.605 186.431 315.065 188.105 314.092C189.034 313.548 189.989 312.352 190.15 311.321C190.61 308.467 190.972 305.534 190.83 302.651C190.517 296.427 190.695 290.475 196.405 285.824C193.766 285.869 192.033 286.091 191.713 288.815C191.51 290.537 190.937 292.291 190.17 293.854C187.569 299.168 186.479 305.289 181.926 309.58C181.675 309.815 181.421 310.275 181.472 310.581C181.78 312.518 182.169 314.435 182.529 316.376ZM185.284 238.669C185.263 238.451 185.235 238.234 185.214 238.015C177.631 237.387 170.05 236.766 162.161 236.12C162.441 237.504 162.671 238.316 162.758 239.138C162.983 241.26 163.983 242.153 166.224 241.898C168.775 241.608 171.261 242.015 173.347 243.736C174.271 244.502 175.207 245.248 176.355 246.181C178.143 242.183 181.309 239.93 185.284 238.669ZM100.451 312.173C98.1545 314.121 95.7499 315.674 93.992 317.779C91.4934 320.768 89.3737 324.032 85.1711 325.005C92.4103 325.634 99.7058 327.033 105.889 320.945C102.032 321.211 98.4454 321.452 94.8583 321.694C94.8437 321.499 94.8211 321.307 94.8065 321.113C97.2623 320.821 99.7181 320.529 102.182 320.235C102.174 320.168 102.166 320.101 102.149 320.037C101.02 319.96 99.8968 319.872 98.8627 319.797C100.226 318.687 101.485 317.673 102.842 316.573C102.096 315.219 101.418 313.961 100.451 312.173ZM67.5017 84.8686C69.055 82.6688 70.431 80.7893 71.7421 78.8573C72.672 77.4949 73.4584 77.1675 74.7948 78.5441C75.8736 79.6499 77.3442 80.3641 78.635 81.2528C76.9059 75.9971 76.938 75.8857 81.661 73.1883C83.7446 72.0001 84.1251 70.1648 83.8492 67.944C81.5705 68.7337 79.4636 69.4542 77.2395 70.2215C77.2006 70.9546 77.2938 71.9729 77.049 72.9129C76.8623 73.6402 76.2708 74.2629 75.8534 74.9278C75.221 74.4328 74.4351 74.0454 73.9926 73.4164C73.2315 72.3425 72.6826 71.1204 72.0468 69.9633C71.7699 70.1278 71.4991 70.2822 71.2222 70.4467C72.2195 72.2187 73.2148 73.9827 74.0821 75.512C72.3922 76.3169 70.4329 76.9744 68.7882 78.095C65.5252 80.3383 65.5581 80.6055 67.5017 84.8686ZM86.4263 95.8813C84.8063 94.3695 83.1924 92.8476 81.3352 91.1114C83.0861 91.402 84.3131 91.7643 85.5474 91.7804C87.7227 91.809 88.5488 90.1714 87.3771 88.2194C86.711 87.1129 85.8489 86.1161 85.1667 85.0138C84.3362 83.6646 83.6168 82.2444 82.8005 80.883C82.6238 80.5918 82.2508 80.238 81.9654 80.2325C81.6882 80.2249 81.1508 80.6186 81.1473 80.8434C81.0771 83.0223 79.9119 83.1783 78.1847 82.6407C77.9802 82.5803 77.5768 83.1642 77.3042 83.4137C76.5475 82.5281 75.874 81.7335 75.2026 80.947C75.045 81.0728 74.8875 81.1986 74.74 81.3305C78.5486 86.2687 79.8462 93.1228 86.4263 95.8813ZM137.28 95.0226C140.728 99.113 137.406 102.861 136.332 107.101C140.736 102.59 140.728 90.2702 136.54 87.7524C136.55 88.5766 136.584 89.3257 136.559 90.0811C136.405 94.0461 135.165 97.5879 132.447 100.529C130.77 102.338 130.05 105.593 131.164 107.827C131.55 108.608 132.496 109.118 133.502 110.036C134.257 106.341 134.877 103.309 135.5 100.284C135.707 100.319 135.915 100.361 136.13 100.393C135.668 103.135 135.209 105.886 134.723 108.738C135.111 108.606 135.362 108.577 135.37 108.506C136.004 104.024 136.64 99.5494 137.28 95.0226ZM127.026 57.8955C126.357 58.8565 125.66 59.4024 125.606 60.01C125.384 62.8129 125.745 65.477 127.63 67.8004C128.768 69.2097 129.658 70.8281 130.568 72.2176C130.602 72.1487 130.818 71.7413 130.852 71.6724C131.726 71.8309 132.642 72.1856 132.789 71.9849C134.373 69.8377 137.911 69.7465 138.998 66.0025C134.856 68.6483 135.239 64.539 133.796 63.3874C132.77 65.0152 131.81 66.5315 130.808 68.1188C126.871 65.7444 128.431 61.6918 127.026 57.8955ZM136.361 306.539C137.263 306.363 137.862 306.281 138.444 306.135C139.915 305.755 139.801 305.818 138.87 304.443C138.445 303.818 138.498 302.832 138.462 302.006C138.352 299.829 137.605 298.028 135.45 296.609C132.394 300.22 129.366 303.808 126.272 307.472C130.407 307.765 130.499 302.773 133.725 301.848C133.864 302.812 134.002 303.698 134.17 304.879C135.86 304.039 136.319 304.974 136.361 306.539ZM239.256 219.192C239.187 219.054 239.116 218.909 239.047 218.771C238.402 219.08 237.774 219.454 237.096 219.702C232.588 221.338 228.111 223.069 223.544 224.505C221.606 225.113 219.445 224.969 217.431 225.374C214.474 225.964 214.056 227.344 215.969 229.712C217.061 229.299 218.142 228.88 219.499 228.357C219.114 229.048 218.914 229.417 218.493 230.169C225.66 226.382 232.455 222.792 239.256 219.192ZM124.715 102.788C121.847 109.297 118.065 115.555 119.434 123.717C123.444 116.928 124.989 110.089 124.715 102.788ZM115.839 59.0106C115.149 59.9251 114.078 60.6944 114.015 61.5369C113.77 64.9311 113.832 68.351 113.782 71.4978C114.257 70.3793 114.875 68.9405 115.626 67.1755C115.773 67.7584 115.921 68.0052 115.857 68.1592C115.033 70.2524 114.174 72.3375 113.351 74.3618C117.725 71.3046 119.51 62.1408 115.839 59.0106ZM107.279 326.769C107.127 326.712 106.977 326.664 106.833 326.605C107.036 325.633 107.238 324.661 107.44 323.688C107.349 323.668 107.264 323.638 107.173 323.618C106.645 324.595 106.119 325.58 105.353 327.013C104.823 325.829 104.473 325.056 104.028 324.075C103.756 324.979 103.547 325.686 103.443 326.022C98.8994 326.565 94.6149 327.076 90.3303 327.588C90.3206 327.754 90.3027 327.922 90.2909 328.08C96.8854 328.131 103.472 328.185 110.429 328.239C109.604 327.018 108.967 326.059 108.224 324.955C107.827 325.735 107.553 326.252 107.279 326.769ZM99.6888 129.348C99.6083 129.541 99.5278 129.733 99.4473 129.926C104.241 132.661 109.036 135.405 113.837 138.138C114.009 137.862 114.188 137.584 114.36 137.309C112.117 135.816 109.867 134.334 107.638 132.829C107.152 132.504 106.35 132.121 106.327 131.722C106.155 129.13 104.153 129.342 102.501 129.139C101.588 129.033 100.634 129.274 99.6888 129.348ZM123.775 173.054C121.717 171.446 119.903 170.018 118.079 168.583C117.996 168.699 117.912 168.806 117.829 168.922C118.121 169.193 118.421 169.461 118.757 169.773C115.876 169.776 113.183 169.774 110.492 169.781C110.47 170.036 110.448 170.291 110.429 170.555C114.785 171.282 118.596 174.592 123.775 173.054ZM84.7912 115.641C86.5599 120.439 90.6012 123.536 93.6912 127.364C93.9306 127.665 94.9103 127.832 95.0637 127.655C96.0748 126.445 97.0799 127.121 98.161 127.417C98.568 127.53 99.0995 127.215 100.03 126.98C98.1883 125.989 96.8574 125.249 95.4901 124.569C95.1174 124.387 94.4391 124.188 94.2594 124.362C92.6541 125.912 91.2861 123.967 91.1515 123.467C90.1887 119.852 87.1193 118.085 84.7912 115.641ZM103.562 73.8586C103.68 76.8512 103.486 79.9052 104.025 82.8262C104.354 84.6116 105.784 86.1885 106.722 87.8635C106.949 87.7375 107.175 87.6116 107.393 87.4877C106.095 82.9501 106.325 77.9927 103.562 73.8586ZM236.881 270.998C236.902 270.846 236.935 270.7 236.956 270.548C238.786 270.603 240.613 270.651 242.434 270.708C242.438 270.484 242.439 270.251 242.451 270.024C240.209 270.004 237.303 269.091 235.897 270.169C233.94 271.653 231.793 271.462 229.899 272.413C229.723 272.501 229.551 272.604 228.947 272.937C229.948 272.814 230.482 272.748 231.109 272.676C230.334 274.482 227.226 273.655 227.216 276.413C228.948 276.149 230.374 275.936 232.378 275.628C230.889 275.556 230 275.513 229.104 275.472C229.104 275.3 229.103 275.128 229.097 274.966C230.67 274.724 232.252 274.481 234.257 274.173C233.192 273.942 232.611 273.822 231.692 273.623C234.11 272.841 236.132 272.194 238.082 271.565C237.756 271.397 237.318 271.197 236.881 270.998ZM118.032 99.246C118.385 93.0693 118.728 87.1276 119.052 81.4492C115.83 86.9282 116.432 92.9675 118.032 99.246ZM86.4589 60.1394C87.734 62.1601 88.9543 64.0998 90.1745 66.0396C90.399 66.0088 90.6155 65.9801 90.838 65.9412C90.9179 63.5618 90.9978 61.1824 91.0876 58.7402C89.3304 59.2778 88.1778 59.62 86.4589 60.1394ZM76.1783 283.186C81.2683 283.685 86.0038 283.017 90.1533 278.966C85.197 280.465 80.6877 281.826 76.1783 283.186ZM105.255 41.2889C107.831 39.5976 108.076 37.0215 108.184 34.1702C103.393 37.1775 103.145 37.7996 105.255 41.2889ZM79.8449 76.4617C83.184 80.4247 86.6732 84.5737 89.9636 88.4801C89.5348 84.7651 83.0249 77.0292 79.8449 76.4617ZM265.132 277.817C260.96 273.314 254.508 272.599 248.517 270.846C254.222 273.239 259.917 275.627 265.132 277.817ZM204.025 243.391C200.278 245.455 199.78 246.278 200.946 248.412C203.102 246.655 205.257 244.897 207.404 243.142C207.169 242.857 206.933 242.572 206.706 242.285C205.791 243.092 204.866 243.894 203.767 244.859C203.883 244.193 203.949 243.84 204.025 243.391ZM127.156 383.849C122.216 381.727 117.267 379.599 112.327 377.478C116.935 380.432 121.689 383.014 127.156 383.849ZM193.609 307.909C195.907 307.33 197.808 306.851 199.709 306.371C199.694 306.211 199.682 306.06 199.667 305.9C198.221 306.101 196.769 306.312 195.322 306.513C195.275 306.361 195.231 306.217 195.184 306.065C196.799 305.477 198.417 304.897 200.372 304.189C196.571 302.969 194.944 304.74 193.609 307.909ZM219.571 276.222C224.148 275.06 227.343 272.515 229.599 268.493C226.25 271.077 223.058 273.535 219.571 276.222ZM227.917 267.557C228.282 267.775 228.637 267.987 229.001 268.205C230.964 265.136 232.918 262.069 234.878 258.991C234.651 258.842 234.416 258.694 234.187 258.537C232.097 261.544 230.007 264.55 227.917 267.557ZM64.331 78.2972C65.8831 79.3009 66.9649 78.9507 67.8117 77.5318C68.4771 76.4169 69.2154 75.3525 69.8446 74.3673C67.7924 74.1785 66.3032 75.1653 64.331 78.2972ZM200.461 282.77C200.502 282.932 200.541 283.085 200.582 283.247C205.282 282.063 209.99 280.876 214.69 279.691C214.649 279.529 214.61 279.375 214.577 279.211C212.256 279.797 209.934 280.382 207.613 280.967C205.226 281.569 202.84 282.17 200.461 282.77ZM142.355 237.892C144.184 240.677 146.478 242.234 150 240.847C147.349 239.819 144.852 238.856 142.355 237.892ZM103.839 313.635C105.449 316.742 106.896 319.994 110.845 321.599C108.326 318.738 106.083 316.186 103.839 313.635ZM74.399 66.6666C74.1644 66.7258 73.9319 66.793 73.7054 66.8501C72.9565 68.6232 73.6791 70.6367 75.7602 72.0667C75.2684 70.1156 74.8337 68.3911 74.399 66.6666ZM128.724 107.056C128.522 109.293 128.364 111.055 128.188 113.02C130.734 110.966 130.734 110.966 128.724 107.056ZM204.625 242.051C201.927 240.768 201.634 240.937 200.115 245.014C201.659 244.004 203.165 243.014 204.625 242.051ZM88.0207 191.22C88.0169 191.341 88.0233 191.469 88.0195 191.59C90.5353 190.956 93.0592 190.32 95.575 189.686C95.5464 189.573 95.5158 189.451 95.4791 189.34C92.9957 189.966 90.5122 190.592 88.0207 191.22ZM119.605 217.709C119.67 217.899 119.737 218.098 119.794 218.29C122.552 217.078 125.311 215.875 128.06 214.665C127.975 214.463 127.889 214.26 127.804 214.058C125.075 215.28 122.336 216.495 119.605 217.709ZM230.315 250.584C230.429 250.693 230.532 250.796 230.646 250.905C232.352 249.175 234.064 247.435 235.77 245.704C235.531 245.472 235.3 245.237 235.06 245.005C233.48 246.858 231.902 248.72 230.315 250.584ZM231.037 252.391C231.319 252.621 231.599 252.843 231.881 253.074C232.93 251.673 233.987 250.27 235.036 248.868C234.834 248.713 234.631 248.557 234.428 248.402C233.3 249.728 232.164 251.056 231.037 252.391ZM125.156 305.773C125.09 305.583 125.035 305.399 124.97 305.209C123.142 305.669 121.306 306.132 119.478 306.593C119.518 306.789 119.557 306.978 119.606 307.172C121.451 306.707 123.303 306.24 125.156 305.773ZM121.923 77.8924C121.668 77.8706 121.422 77.8467 121.167 77.8249C120.71 80.1098 120.26 82.3846 119.803 84.6695C119.931 84.6976 120.058 84.7258 120.184 84.7458C120.768 82.4546 121.346 80.1735 121.923 77.8924ZM121.654 99.3145C121.354 99.2523 121.055 99.19 120.755 99.1278C120.391 100.959 120.026 102.79 119.66 104.613C119.868 104.655 120.085 104.695 120.293 104.738C120.743 102.937 121.198 101.126 121.654 99.3145Z" fill="black"/>
</g>
<defs>
<clipPath id="clip0">
<rect width="221" height="391" fill="white" transform="translate(0 54.0181) rotate(-14.1479)"/>
</clipPath>
</defs>
</svg>
